<?xml version="1.0" standalone="no"?>
<!DOCTYPE svg PUBLIC "-//W3C//DTD SVG 20010904//EN"
 "http://www.w3.org/TR/2001/REC-SVG-20010904/DTD/svg10.dtd">
<svg version="1.0" xmlns="http://www.w3.org/2000/svg"
 width="450.000000pt" height="563.000000pt" viewBox="0 0 450.000000 563.000000"
 preserveAspectRatio="xMidYMid meet">
<metadata>
</metadata>
<g transform="translate(0.000000,563.000000) scale(0.100000,-0.100000)"
fill="#4385D2" stroke="none">
<path d="M1410 5211 c0 -5 15 -12 33 -16 29 -6 253 -78 287 -92 8 -3 19 -5 24
-4 4 1 14 -4 22 -10 8 -6 14 -9 14 -6 0 3 37 -9 83 -25 45 -17 96 -34 112 -38
17 -4 42 -13 58 -19 15 -6 27 -7 27 -3 0 4 4 2 8 -5 4 -6 19 -14 32 -16 50
-10 85 -20 95 -28 6 -4 22 -10 35 -13 14 -2 50 -13 80 -22 30 -10 61 -16 69
-15 8 1 10 -2 5 -10 -5 -8 -3 -10 6 -4 7 4 15 2 20 -4 5 -9 10 -8 18 2 10 11
2 16 -42 26 -30 7 -60 18 -66 26 -6 7 -33 16 -60 20 -27 4 -51 12 -53 20 -3 8
-15 11 -31 8 -14 -3 -26 -1 -26 4 0 5 -8 9 -18 10 -27 2 -47 7 -52 15 -5 6
-95 33 -149 44 -14 3 -28 7 -33 10 -22 14 -146 54 -166 54 -15 0 -21 4 -16 12
4 6 3 8 -4 4 -6 -3 -13 -2 -17 4 -3 5 -18 10 -33 10 -34 1 -110 21 -139 38
-12 6 -36 12 -53 12 -17 0 -40 5 -51 10 -11 7 -19 7 -19 1z"/>
<path d="M1400 5147 c33 -16 51 -33 42 -42 -4 -5 3 -6 14 -3 12 3 42 -4 67
-17 40 -19 47 -20 52 -6 3 8 3 12 -1 8 -4 -3 -23 2 -43 12 -64 33 -116 54
-136 57 -15 2 -14 0 5 -9z"/>
<path d="M1619 5060 c19 -16 38 -27 42 -24 4 2 10 0 14 -6 9 -15 32 -12 32 5
0 8 -7 15 -14 15 -8 0 -33 9 -55 20 -56 27 -59 25 -19 -10z"/>
<path d="M1720 5031 c0 -10 28 -21 210 -82 69 -23 139 -47 155 -54 44 -19 146
-56 173 -62 12 -3 22 -9 22 -13 0 -4 11 -10 25 -12 14 -3 25 -2 25 1 0 6 -24
18 -95 46 -22 9 -49 20 -60 25 -18 9 -397 138 -420 143 -5 2 -16 6 -22 10 -7
5 -13 4 -13 -2z"/>
<path d="M2455 4879 c-11 -4 -15 -8 -10 -9 6 -1 15 -3 20 -4 57 -11 85 -20 85
-28 0 -5 10 -6 22 -3 16 6 20 4 15 -7 -4 -11 4 -15 34 -16 22 -1 49 -7 61 -13
11 -6 35 -13 52 -16 17 -3 33 -8 36 -11 3 -4 16 -8 29 -10 12 -2 41 -10 63
-18 26 -9 38 -10 36 -3 -5 14 -98 50 -98 38 0 -4 -7 -6 -15 -3 -8 4 -13 10
-10 14 3 4 -15 11 -40 14 -24 4 -47 11 -50 16 -3 5 -12 7 -20 3 -8 -3 -15 0
-15 7 0 10 -3 10 -15 0 -8 -7 -15 -8 -15 -4 0 21 -137 64 -165 53z"/>
<path d="M2385 4790 c3 -5 8 -10 11 -10 2 0 4 5 4 10 0 6 -5 10 -11 10 -5 0
-7 -4 -4 -10z"/>
<path d="M2468 4761 c37 -24 42 -25 42 -10 0 5 -4 8 -9 5 -5 -4 -11 -2 -13 3
-1 4 -14 12 -28 15 -21 6 -20 4 8 -13z"/>
<path d="M2535 4730 c3 -5 8 -10 11 -10 2 0 4 5 4 10 0 6 -5 10 -11 10 -5 0
-7 -4 -4 -10z"/>
<path d="M2924 4721 c13 -14 23 -18 30 -11 12 12 8 15 -24 25 -25 8 -25 8 -6
-14z"/>
<path d="M2651 4694 c9 -9 25 -14 35 -12 14 3 10 7 -16 16 -32 12 -34 11 -19
-4z"/>
<path d="M2990 4700 c0 -5 7 -10 15 -10 8 0 15 5 15 10 0 6 -7 10 -15 10 -8 0
-15 -4 -15 -10z"/>
<path d="M3033 4688 c-3 -6 -1 -8 5 -4 6 3 13 2 17 -4 9 -14 28 -13 23 2 -5
15 -36 19 -45 6z"/>
<path d="M2720 4670 c0 -6 7 -10 15 -10 8 0 15 2 15 4 0 2 -7 6 -15 10 -8 3
-15 1 -15 -4z"/>
<path d="M3120 4671 c0 -11 25 -21 51 -21 10 0 19 -4 19 -8 0 -5 6 -9 13 -10
25 -1 66 -12 100 -27 20 -8 45 -15 56 -15 11 0 27 -7 36 -16 12 -13 19 -14 28
-5 13 13 -18 42 -43 39 -17 -2 -79 17 -128 38 -18 8 -37 12 -43 9 -5 -4 -16
-1 -24 5 -8 7 -15 10 -15 6 0 -3 -11 -1 -25 4 -14 5 -25 6 -25 1z"/>
<path d="M2774 4649 c-3 -5 1 -9 10 -9 8 0 21 -3 30 -6 9 -3 16 -2 16 4 0 13
-49 22 -56 11z"/>
<path d="M2845 4630 c-3 -5 1 -10 10 -10 9 0 13 5 10 10 -3 6 -8 10 -10 10 -2
0 -7 -4 -10 -10z"/>
<path d="M2326 4596 c3 -9 13 -16 22 -16 8 0 13 1 11 3 -2 1 -12 9 -22 16 -15
12 -17 12 -11 -3z"/>
<path d="M2552 4564 c10 -10 20 -15 24 -12 3 4 -5 12 -18 18 -22 12 -22 12 -6
-6z"/>
<path d="M3452 4564 c2 -11 61 -35 189 -78 103 -34 192 -60 198 -58 23 8 10
20 -28 25 -21 2 -53 11 -72 19 -19 8 -87 32 -151 53 -65 21 -118 41 -118 46 0
5 -5 9 -11 9 -6 0 -9 -7 -7 -16z"/>
<path d="M3040 4560 c0 -5 5 -10 11 -10 5 0 7 5 4 10 -3 6 -8 10 -11 10 -2 0
-4 -4 -4 -10z"/>
<path d="M2422 4533 c-15 -6 -6 -23 14 -23 8 0 71 -27 141 -60 69 -33 128 -58
130 -56 5 4 -226 126 -239 126 -4 0 -8 5 -8 10 0 10 -16 12 -38 3z"/>
<path d="M2585 4530 c-7 -12 45 -39 64 -32 8 3 11 0 7 -6 -4 -6 2 -10 14 -9
31 2 24 11 -25 35 -52 25 -52 25 -60 12z"/>
<path d="M3130 4528 c19 -5 39 -14 45 -19 11 -11 25 -12 25 -1 0 10 -69 33
-91 31 -8 0 2 -5 21 -11z"/>
<path d="M2911 4504 c0 -11 3 -14 6 -6 3 7 2 16 -1 19 -3 4 -6 -2 -5 -13z"/>
<path d="M2414 4491 c3 -4 34 -19 68 -31 63 -23 214 -91 488 -221 80 -37 183
-84 230 -104 47 -20 101 -43 120 -52 19 -8 31 -11 25 -6 -5 6 -77 40 -160 78
-82 37 -211 97 -285 133 -74 35 -175 82 -225 104 -49 22 -103 46 -120 53 -30
14 -137 55 -143 55 -2 0 -1 -4 2 -9z"/>
<path d="M2560 4495 c0 -7 81 -47 86 -42 3 3 -13 14 -36 26 -42 22 -50 24 -50
16z"/>
<path d="M2400 4472 c0 -5 35 -23 78 -41 42 -18 121 -52 175 -76 53 -24 97
-42 97 -39 0 6 -112 61 -205 101 -44 19 -95 41 -112 49 -18 8 -33 11 -33 6z"/>
<path d="M3451 4448 c-10 -32 -15 -109 -12 -176 1 -36 -5 -32 135 -83 44 -16
83 -26 87 -22 13 15 22 243 9 243 -6 0 -8 -4 -5 -10 5 -8 -14 -209 -21 -219
-2 -1 -9 1 -16 5 -7 5 -17 9 -23 10 -33 6 -132 49 -142 62 -14 17 -8 164 8
194 11 21 11 28 0 28 -5 0 -14 -15 -20 -32z"/>
<path d="M2690 4457 c14 -8 27 -12 30 -10 7 6 -23 23 -40 23 -8 0 -4 -6 10
-13z"/>
<path d="M2840 4466 c0 -2 7 -7 16 -10 8 -3 12 -2 9 4 -6 10 -25 14 -25 6z"/>
<path d="M2374 4449 c-3 -6 -3 -13 0 -16 3 -4 6 0 6 8 0 9 3 10 8 3 7 -11 169
-84 186 -84 4 0 55 -22 113 -50 58 -27 107 -50 109 -50 5 0 203 -90 443 -201
35 -17 65 -28 67 -26 4 3 -122 65 -321 157 -119 55 -290 131 -500 221 -38 17
-78 34 -87 39 -11 6 -19 6 -24 -1z"/>
<path d="M3335 4450 c3 -5 8 -10 11 -10 2 0 4 5 4 10 0 6 -5 10 -11 10 -5 0
-7 -4 -4 -10z"/>
<path d="M3662 4444 c10 -10 20 -15 24 -12 3 4 -5 12 -18 18 -22 12 -22 12 -6
-6z"/>
<path d="M2667 4439 c7 -7 15 -10 18 -7 3 3 -2 9 -12 12 -14 6 -15 5 -6 -5z"/>
<path d="M2730 4446 c0 -3 9 -10 20 -16 11 -6 20 -8 20 -6 0 3 -9 10 -20 16
-11 6 -20 8 -20 6z"/>
<path d="M2910 4434 c0 -11 27 -32 50 -38 24 -7 24 -7 5 8 -11 8 -25 20 -32
26 -13 11 -23 13 -23 4z"/>
<path d="M3860 4427 c0 -10 39 -27 118 -53 131 -44 134 -44 140 -26 2 7 -2 12
-9 11 -21 -4 -89 11 -89 19 0 4 -11 9 -24 10 -19 1 -76 24 -128 50 -5 2 -8 -3
-8 -11z"/>
<path d="M2780 4420 c0 -5 7 -10 16 -10 8 0 12 5 9 10 -3 6 -10 10 -16 10 -5
0 -9 -4 -9 -10z"/>
<path d="M2395 4400 c17 -11 46 -25 65 -31 48 -16 258 -103 358 -150 46 -21
86 -39 87 -39 2 0 43 -18 92 -41 136 -64 391 -179 573 -259 91 -40 188 -83
215 -95 28 -13 122 -56 210 -95 88 -39 179 -81 203 -92 24 -11 45 -18 47 -16
3 3 -16 14 -43 26 -26 12 -153 69 -282 128 -129 58 -305 137 -390 174 -149 65
-247 110 -560 255 -80 37 -190 86 -245 110 -55 23 -120 51 -145 63 -56 25
-199 82 -208 82 -4 0 7 -9 23 -20z"/>
<path d="M3475 4410 c-3 -5 -1 -10 4 -10 6 0 11 5 11 10 0 6 -2 10 -4 10 -3 0
-8 -4 -11 -10z"/>
<path d="M3740 4410 c0 -5 7 -7 15 -4 8 4 15 8 15 10 0 2 -7 4 -15 4 -8 0 -15
-4 -15 -10z"/>
<path d="M2820 4406 c0 -2 7 -7 16 -10 8 -3 12 -2 9 4 -6 10 -25 14 -25 6z"/>
<path d="M3053 4377 c-3 -5 -2 -7 4 -4 5 3 21 0 35 -7 27 -14 62 -6 37 9 -19
13 -69 14 -76 2z"/>
<path d="M3720 4363 c-7 -16 -15 -68 -19 -116 -7 -103 -7 -104 84 -132 33 -11
64 -23 69 -27 15 -12 26 -10 26 5 0 8 -6 14 -12 15 -7 0 -31 7 -53 16 -22 8
-48 15 -57 16 -34 0 -50 43 -43 112 3 34 11 78 16 96 14 42 6 51 -11 15z"/>
<path d="M2892 4367 c9 -7 25 -18 35 -25 16 -11 16 -12 -7 -7 -14 3 0 -8 30
-24 30 -17 60 -30 65 -30 6 0 -8 9 -30 21 -23 12 -34 23 -27 26 8 2 -3 14 -28
28 -44 25 -66 32 -38 11z"/>
<path d="M2800 4356 c0 -2 26 -16 58 -31 31 -16 71 -35 87 -43 17 -8 26 -10
20 -4 -11 11 -148 82 -159 82 -3 0 -6 -2 -6 -4z"/>
<path d="M3167 4349 c7 -7 15 -10 18 -7 3 3 -2 9 -12 12 -14 6 -15 5 -6 -5z"/>
<path d="M2473 4335 c0 -9 6 -14 12 -11 7 2 31 -13 54 -34 23 -21 48 -41 56
-44 8 -3 15 -10 15 -16 0 -5 6 -10 14 -10 8 0 25 -13 38 -28 12 -15 26 -27 30
-27 3 0 17 -9 30 -21 13 -11 32 -23 42 -27 10 -4 14 -12 10 -19 -4 -7 -4 -10
0 -7 7 7 104 -45 137 -73 29 -24 262 -136 319 -153 14 -4 39 -13 55 -20 64
-27 177 -65 193 -64 12 0 9 4 -8 11 -14 6 -39 17 -57 24 -17 8 -40 14 -50 14
-11 0 -28 7 -39 15 -10 8 -27 15 -36 15 -10 0 -18 4 -18 8 0 5 -22 15 -50 22
-27 7 -50 17 -50 21 0 4 -14 11 -32 14 -17 4 -48 17 -67 28 -20 11 -65 37
-101 57 -85 48 -131 77 -188 121 -26 20 -67 48 -90 63 -24 15 -41 30 -38 35 3
4 -20 20 -51 35 -38 18 -52 30 -44 35 8 6 -2 14 -31 27 -24 10 -46 20 -49 21
-3 2 -6 -4 -6 -12z"/>
<path d="M4142 4328 c3 -7 18 -15 34 -19 16 -3 43 -12 59 -21 17 -8 52 -21 80
-27 27 -7 56 -17 63 -23 9 -8 16 -8 24 0 8 8 8 12 -3 15 -8 2 -43 14 -79 26
-36 12 -72 24 -80 25 -8 1 -29 10 -47 19 -38 20 -56 22 -51 5z"/>
<path d="M4004 4322 c3 -5 -1 -26 -9 -48 -8 -21 -14 -52 -14 -69 0 -28 0 -29
14 -11 12 16 17 17 30 6 8 -7 18 -11 20 -8 3 3 -6 11 -20 18 -28 15 -33 45 -9
58 11 6 13 11 5 16 -8 5 -8 13 -1 27 9 15 7 19 -5 19 -9 0 -14 -4 -11 -8z"/>
<path d="M3934 4281 c0 -20 -4 -63 -7 -96 -3 -33 -6 -68 -7 -77 0 -10 -7 -18
-16 -18 -20 0 -10 -16 15 -23 17 -4 19 1 20 37 0 22 5 73 10 111 13 89 13 92
-1 98 -9 3 -13 -7 -14 -32z"/>
<path d="M2771 4305 c5 -4 290 -138 387 -181 28 -12 52 -21 52 -18 0 5 -152
78 -324 155 -102 46 -126 55 -115 44z"/>
<path d="M2580 4296 c0 -1 135 -63 300 -137 166 -73 297 -135 292 -137 -5 -1
-67 23 -138 54 -162 71 -246 105 -251 100 -2 -2 11 -9 29 -16 18 -7 60 -25 93
-41 33 -15 101 -44 150 -64 50 -21 111 -48 137 -61 54 -27 71 -31 42 -9 -15
11 -16 15 -4 15 22 1 -46 34 -356 174 -266 119 -294 131 -294 122z m630 -286
c13 -8 13 -10 -2 -10 -9 0 -20 5 -23 10 -8 13 5 13 25 0z"/>
<path d="M4080 4250 c0 -5 5 -10 11 -10 5 0 7 5 4 10 -3 6 -8 10 -11 10 -2 0
-4 -4 -4 -10z"/>
<path d="M4228 4253 c7 -3 16 -2 19 1 4 3 -2 6 -13 5 -11 0 -14 -3 -6 -6z"/>
<path d="M3050 4235 c14 -8 30 -14 35 -14 6 0 -1 6 -15 14 -14 8 -29 14 -35
14 -5 0 1 -6 15 -14z"/>
<path d="M3101 4246 c10 -9 69 -36 69 -32 0 6 -55 36 -66 36 -4 0 -5 -2 -3 -4z"/>
<path d="M4430 4232 c0 -5 16 -16 35 -25 32 -15 35 -15 35 0 0 9 -3 13 -6 10
-4 -3 -16 0 -28 8 -23 17 -36 19 -36 7z"/>
<path d="M3207 4219 c7 -7 15 -10 18 -7 3 3 -2 9 -12 12 -14 6 -15 5 -6 -5z"/>
<path d="M3130 4200 c8 -5 20 -10 25 -10 6 0 3 5 -5 10 -8 5 -19 10 -25 10 -5
0 -3 -5 5 -10z"/>
<path d="M3436 4201 c-3 -5 8 -11 25 -15 17 -3 45 -12 62 -20 18 -8 68 -26
112 -42 44 -15 85 -33 91 -40 6 -8 14 -11 17 -7 8 7 117 -28 117 -38 0 -4 12
-9 28 -12 69 -13 118 -29 134 -44 9 -8 22 -12 27 -8 6 3 23 0 38 -9 30 -16
109 -46 133 -51 36 -8 70 -26 70 -37 0 -9 3 -9 9 1 7 11 13 12 23 4 19 -15
169 -65 176 -58 8 8 5 9 -108 48 -256 89 -338 118 -385 137 -27 11 -131 48
-230 84 -99 36 -211 76 -250 90 -78 29 -82 30 -89 17z"/>
<path d="M4062 4193 c-8 -15 -9 -24 -1 -28 15 -10 21 0 17 27 l-3 23 -13 -22z"/>
<path d="M4220 4195 c10 -12 10 -21 2 -38 -9 -19 -21 -99 -22 -150 0 -20 -30
-20 -68 2 -27 14 -59 23 -85 23 -9 -1 -15 3 -12 8 3 6 0 7 -8 5 -14 -6 -49 26
-46 41 1 5 0 20 -1 34 -2 19 -4 15 -10 -15 -6 -27 -4 -44 3 -52 7 -7 63 -30
125 -52 130 -45 114 -57 131 95 14 115 14 114 -5 114 -14 0 -14 -3 -4 -15z"/>
<path d="M3201 4196 c2 -2 15 -9 29 -15 24 -11 24 -11 6 3 -16 13 -49 24 -35
12z"/>
<path d="M4279 4190 c-2 -14 -5 -22 -12 -40 -9 -19 -25 -181 -20 -196 2 -5 29
-19 61 -29 31 -11 84 -30 116 -42 35 -13 64 -19 69 -14 5 5 -3 11 -18 15 -16
4 -32 19 -41 39 -14 30 -15 30 -11 5 l4 -26 -43 13 c-23 7 -60 21 -81 31 l-38
19 2 67 c4 90 22 144 48 140 23 -4 19 0 -12 17 -15 8 -23 8 -24 1z"/>
<path d="M3170 4185 c0 -6 56 -35 67 -35 4 0 -5 9 -22 20 -29 19 -45 25 -45
15z"/>
<path d="M4131 4183 c0 -6 -4 -20 -7 -30 -5 -14 -4 -15 5 -7 7 7 11 20 8 30
-3 11 -5 14 -6 7z"/>
<path d="M3970 4160 c0 -5 7 -10 15 -10 8 0 15 5 15 10 0 6 -7 10 -15 10 -8 0
-15 -4 -15 -10z"/>
<path d="M4340 4166 c0 -2 9 -6 20 -9 11 -3 18 -1 14 4 -5 9 -34 13 -34 5z"/>
<path d="M3440 4151 c0 -5 5 -13 10 -16 6 -4 8 -10 5 -15 -7 -11 34 -40 55
-40 8 1 2 8 -14 16 -16 9 -24 19 -18 23 6 3 0 13 -14 24 -13 10 -24 13 -24 8z"/>
<path d="M3895 4150 c3 -5 8 -10 11 -10 2 0 4 5 4 10 0 6 -5 10 -11 10 -5 0
-7 -4 -4 -10z"/>
<path d="M4430 4142 c0 -5 11 -14 25 -20 14 -6 25 -10 25 -8 0 2 -11 11 -25
20 -14 9 -25 13 -25 8z"/>
<path d="M3543 4096 c22 -17 22 -27 0 -19 -11 4 -14 3 -9 -6 5 -7 14 -10 21
-7 7 2 15 -1 18 -7 2 -7 22 -18 43 -25 22 -8 91 -34 154 -59 170 -68 273 -102
285 -95 5 4 1 8 -10 10 -19 3 -67 20 -132 48 -17 8 -37 14 -45 14 -7 0 -21 7
-32 15 -10 7 -42 21 -72 31 -30 9 -54 21 -54 26 0 6 -7 8 -15 5 -8 -4 -17 -2
-20 4 -4 5 -11 7 -16 4 -5 -4 -9 -1 -9 5 0 6 -8 10 -17 8 -11 -2 -17 2 -15 10
2 9 -4 11 -17 7 -14 -4 -23 0 -30 13 -6 11 -18 22 -28 26 -17 6 -17 5 0 -8z"/>
<path d="M4361 4076 c-1 -24 1 -27 14 -16 16 14 21 25 6 15 -5 -3 -12 3 -14
12 -3 11 -5 6 -6 -11z"/>
<path d="M2950 4070 c19 -11 40 -19 45 -19 6 0 -6 8 -25 19 -19 11 -39 19 -45
19 -5 0 6 -8 25 -19z"/>
<path d="M4410 4078 c0 -9 -3 -23 -6 -32 -3 -9 -1 -16 4 -16 16 0 26 40 13 53
-8 8 -11 7 -11 -5z"/>
<path d="M3327 4049 c7 -7 15 -10 18 -7 3 3 -2 9 -12 12 -14 6 -15 5 -6 -5z"/>
<path d="M3010 4044 c0 -7 52 -25 57 -20 2 2 -10 8 -26 14 -17 6 -31 9 -31 6z"/>
<path d="M3400 4046 c0 -2 7 -6 15 -10 8 -3 15 -1 15 4 0 6 -7 10 -15 10 -8 0
-15 -2 -15 -4z"/>
<path d="M3484 4036 c11 -9 24 -16 30 -16 12 0 7 5 -24 19 -24 11 -24 11 -6
-3z"/>
<path d="M3450 4026 c0 -2 7 -7 16 -10 8 -3 12 -2 9 4 -6 10 -25 14 -25 6z"/>
<path d="M3360 4009 c19 -13 99 -49 108 -49 8 1 -110 60 -118 60 -3 0 2 -5 10
-11z"/>
<path d="M3103 4004 c7 -7 119 -54 127 -54 3 1 -8 8 -23 16 -34 18 -114 47
-104 38z"/>
<path d="M3260 3990 c8 -5 20 -10 25 -10 6 0 3 5 -5 10 -8 5 -19 10 -25 10 -5
0 -3 -5 5 -10z"/>
<path d="M3480 3980 c8 -5 20 -10 25 -10 6 0 3 5 -5 10 -8 5 -19 10 -25 10 -5
0 -3 -5 5 -10z"/>
<path d="M3540 3986 c0 -2 7 -7 16 -10 8 -3 12 -2 9 4 -6 10 -25 14 -25 6z"/>
<path d="M3305 3970 c3 -4 14 -10 25 -13 11 -3 18 -2 15 3 -3 4 -14 10 -25 13
-11 3 -18 2 -15 -3z"/>
<path d="M3520 3966 c0 -3 9 -10 20 -16 11 -6 20 -8 20 -6 0 3 -9 10 -20 16
-11 6 -20 8 -20 6z"/>
<path d="M3590 3960 c8 -5 20 -10 25 -10 6 0 3 5 -5 10 -8 5 -19 10 -25 10 -5
0 -3 -5 5 -10z"/>
<path d="M4453 3945 c7 -13 14 -20 15 -14 5 14 -6 39 -17 39 -5 0 -4 -11 2
-25z"/>
<path d="M3304 3945 c22 -17 40 -20 32 -6 -3 5 -16 11 -28 14 -22 6 -22 5 -4
-8z"/>
<path d="M3244 3941 c3 -5 20 -14 38 -20 38 -13 26 0 -15 17 -16 7 -26 8 -23
3z"/>
<path d="M3510 3945 c0 -3 30 -20 68 -37 90 -40 147 -66 339 -154 89 -41 166
-74 170 -74 4 0 22 -7 38 -16 44 -23 148 -65 152 -61 2 2 -34 20 -79 40 -244
107 -670 297 -680 304 -5 2 -8 1 -8 -2z"/>
<path d="M4358 3938 c5 -5 16 -8 23 -6 8 3 3 7 -10 11 -17 4 -21 3 -13 -5z"/>
<path d="M3370 3915 c14 -8 30 -14 35 -14 6 0 -1 6 -15 14 -14 8 -29 14 -35
14 -5 0 1 -6 15 -14z"/>
<path d="M3600 3927 c0 -3 15 -10 32 -16 18 -6 28 -7 23 -2 -12 10 -55 25 -55
18z"/>
<path d="M3435 3910 c4 -6 0 -10 -7 -10 -15 -1 51 -39 67 -39 6 0 -6 9 -25 20
-32 18 -33 20 -7 14 36 -7 35 0 -3 14 -18 6 -28 6 -25 1z"/>
<path d="M3340 3900 c8 -5 20 -10 25 -10 6 0 3 5 -5 10 -8 5 -19 10 -25 10 -5
0 -3 -5 5 -10z"/>
<path d="M3508 3878 c5 -5 16 -8 23 -6 8 3 3 7 -10 11 -17 4 -21 3 -13 -5z"/>
<path d="M3690 3886 c0 -2 7 -7 16 -10 8 -3 12 -2 9 4 -6 10 -25 14 -25 6z"/>
<path d="M3414 3866 c11 -9 24 -16 30 -16 12 0 7 5 -24 19 -24 11 -24 11 -6
-3z"/>
<path d="M3555 3862 c16 -13 67 -33 61 -23 -3 5 -20 14 -38 20 -18 6 -28 8
-23 3z"/>
<path d="M3740 3860 c8 -5 20 -10 25 -10 6 0 3 5 -5 10 -8 5 -19 10 -25 10 -5
0 -3 -5 5 -10z"/>
<path d="M4079 3860 c13 -6 38 -17 55 -24 17 -8 42 -17 56 -20 14 -3 1 5 -28
19 -28 14 -64 27 -80 30 -26 5 -26 5 -3 -5z"/>
<path d="M3860 3840 c8 -5 20 -10 25 -10 6 0 3 5 -5 10 -8 5 -19 10 -25 10 -5
0 -3 -5 5 -10z"/>
<path d="M3640 3820 c8 -5 20 -10 25 -10 6 0 3 5 -5 10 -8 5 -19 10 -25 10 -5
0 -3 -5 5 -10z"/>
<path d="M3869 3805 c29 -14 55 -24 58 -22 2 3 -15 12 -39 22 -69 28 -78 27
-19 0z"/>
<path d="M4255 3793 c199 -78 239 -92 243 -88 7 7 6 7 -59 38 -31 15 -62 27
-70 27 -18 0 -86 24 -95 33 -4 4 -19 7 -33 6 -22 0 -20 -2 14 -16z"/>
<path d="M4388 3803 c7 -3 16 -2 19 1 4 3 -2 6 -13 5 -11 0 -14 -3 -6 -6z"/>
<path d="M3990 3780 c8 -5 20 -10 25 -10 6 0 3 5 -5 10 -8 5 -19 10 -25 10 -5
0 -3 -5 5 -10z"/>
<path d="M3510 3760 c14 -4 32 -8 40 -9 13 -1 13 0 0 9 -8 5 -26 9 -40 9 l-25
-1 25 -8z"/>
<path d="M4015 3739 c22 -11 67 -31 100 -44 33 -12 99 -39 147 -59 48 -20 93
-36 100 -36 12 0 -65 34 -202 90 -25 10 -73 30 -106 44 -73 31 -96 34 -39 5z"/>
<path d="M3021 3740 c-8 -4 8 -7 35 -5 27 1 61 -4 76 -11 15 -8 46 -14 70 -14
31 0 39 -3 28 -10 -16 -10 -13 -12 21 -14 12 0 25 -10 30 -21 7 -18 8 -18 8
-2 1 11 6 15 13 11 7 -4 8 -3 4 5 -4 6 -11 9 -15 7 -4 -3 -17 4 -29 14 -12 11
-31 20 -44 20 -32 0 -69 11 -64 19 6 9 -118 11 -133 1z"/>
<path d="M3570 3745 c0 -12 79 -42 92 -34 7 5 11 9 8 10 -45 8 -56 11 -64 19
-10 10 -36 14 -36 5z"/>
<path d="M3810 3746 c0 -2 7 -7 16 -10 8 -3 12 -2 9 4 -6 10 -25 14 -25 6z"/>
<path d="M3684 3701 c8 -13 66 -32 66 -21 0 11 -8 16 -43 24 -17 4 -26 3 -23
-3z"/>
<path d="M3337 3669 c7 -7 15 -10 18 -7 3 3 -2 9 -12 12 -14 6 -15 5 -6 -5z"/>
<path d="M3781 3664 c6 -8 18 -14 26 -14 20 0 8 16 -17 23 -17 4 -19 3 -9 -9z"/>
<path d="M4258 3673 c7 -3 16 -2 19 1 4 3 -2 6 -13 5 -11 0 -14 -3 -6 -6z"/>
<path d="M4430 3661 c0 -5 9 -11 20 -14 24 -6 27 8 4 17 -21 8 -24 8 -24 -3z"/>
<path d="M4330 3649 c0 -5 5 -7 10 -4 6 3 10 1 10 -4 0 -6 8 -11 18 -11 15 1
15 2 -2 15 -23 18 -36 19 -36 4z"/>
<path d="M3850 3641 c0 -6 11 -11 25 -11 14 0 25 -4 25 -10 0 -5 12 -13 28
-16 15 -4 32 -10 37 -14 6 -4 24 -10 40 -14 22 -5 27 -4 19 4 -6 6 -19 12 -30
14 -11 2 -37 13 -59 24 -55 28 -85 36 -85 23z"/>
<path d="M3480 3610 c0 -15 21 -23 32 -12 6 6 2 11 -11 15 -12 3 -21 1 -21 -3z"/>
<path d="M3546 3591 c-3 -5 1 -11 9 -15 8 -3 15 -1 15 4 0 13 -18 22 -24 11z"/>
<path d="M4290 3597 c0 -3 15 -10 32 -16 18 -6 28 -7 23 -2 -12 10 -55 25 -55
18z"/>
<path d="M3172 3560 c-23 -16 -42 -33 -42 -38 0 -4 21 -7 47 -8 38 -1 43 1 23
8 -21 8 -22 10 -8 24 11 12 25 14 47 9 17 -4 29 -10 26 -15 -3 -5 0 -12 6 -16
8 -5 9 -3 4 6 -6 10 -2 12 16 6 13 -4 33 -9 43 -11 11 -3 24 -9 30 -15 5 -5
17 -10 26 -10 9 0 33 -9 55 -20 22 -11 48 -20 58 -20 11 0 15 -4 11 -12 -5 -8
-2 -9 9 -5 10 3 17 2 17 -4 0 -6 4 -8 9 -5 5 4 36 -5 68 -18 32 -13 88 -36
126 -50 37 -14 97 -38 135 -52 37 -14 76 -30 87 -34 11 -5 44 -17 73 -26 30
-9 56 -22 59 -29 2 -7 12 -11 23 -8 10 3 21 0 24 -6 4 -6 15 -11 25 -11 10 0
38 -11 62 -23 24 -13 60 -27 80 -31 19 -3 53 -15 74 -26 22 -11 47 -20 57 -20
10 0 18 -4 18 -8 0 -4 9 -8 20 -9 11 -1 20 2 20 6 0 9 -10 13 -295 123 -115
45 -230 89 -255 98 -25 10 -110 42 -190 73 -80 30 -185 71 -235 90 -76 29
-239 91 -296 112 -8 3 -33 -8 -57 -25z"/>
<path d="M4260 3576 c0 -2 7 -6 15 -10 8 -3 15 -1 15 4 0 6 -7 10 -15 10 -8 0
-15 -2 -15 -4z"/>
<path d="M3605 3560 c3 -5 8 -10 11 -10 2 0 4 5 4 10 0 6 -5 10 -11 10 -5 0
-7 -4 -4 -10z"/>
<path d="M4063 3558 c15 -5 27 -14 27 -19 0 -4 6 -6 14 -3 8 3 28 -2 45 -10
38 -20 63 -21 38 -1 -11 7 -36 17 -58 20 -21 4 -41 11 -45 16 -3 5 -15 9 -27
8 -19 0 -19 -2 6 -11z"/>
<path d="M3640 3545 c0 -18 36 -20 46 -3 5 8 2 9 -9 5 -10 -3 -17 -2 -17 3 0
6 -4 10 -10 10 -5 0 -10 -7 -10 -15z"/>
<path d="M4310 3556 c0 -2 7 -7 16 -10 8 -3 12 -2 9 4 -6 10 -25 14 -25 6z"/>
<path d="M2335 3519 c-16 -10 -40 -24 -52 -30 -13 -7 -23 -16 -23 -21 0 -4 -4
-8 -9 -8 -10 0 -113 -67 -121 -79 -3 -4 -12 -10 -20 -13 -12 -5 -250 -168
-435 -298 -28 -20 -193 -134 -460 -318 -60 -42 -153 -106 -205 -143 -135 -96
-375 -263 -408 -284 -54 -34 -87 -63 -80 -70 3 -4 15 2 26 12 24 23 53 42 75
49 9 4 17 10 17 14 0 5 9 12 20 15 11 4 33 18 48 32 15 14 43 33 62 43 19 10
44 27 54 39 11 12 25 21 33 21 7 0 13 5 13 11 0 6 6 9 14 6 8 -3 16 0 19 6 3
7 24 26 48 42 24 17 50 36 58 43 7 7 20 11 28 8 8 -3 12 -2 8 3 -3 5 11 19 30
31 20 12 41 27 48 34 6 7 27 21 46 32 19 10 48 31 64 46 17 15 33 26 35 23 2
-2 11 3 19 11 8 8 20 11 26 7 7 -3 9 -3 5 2 -7 8 20 34 32 31 6 -1 27 16 62
49 11 11 17 13 13 5 -8 -13 -7 -13 10 0 11 8 26 20 33 25 7 6 18 15 25 20 35
29 107 75 116 75 5 0 13 5 17 12 5 7 3 8 -6 3 -8 -5 -11 -4 -7 2 4 6 21 13 38
17 18 3 29 9 26 13 -7 7 116 93 133 93 5 0 10 4 10 9 0 4 21 22 48 39 78 50
167 114 170 123 2 5 12 9 23 9 10 0 19 3 19 8 0 6 88 70 147 107 18 11 44 31
76 58 12 11 34 25 50 33 15 8 27 17 27 19 0 9 -15 4 -45 -16z"/>
<path d="M3038 3460 c-75 -56 -84 -66 -63 -74 8 -3 17 -1 20 5 4 5 11 6 17 3
7 -4 8 -2 4 4 -9 15 82 81 112 82 12 0 22 -4 22 -10 0 -5 -5 -10 -11 -10 -5 0
-7 -4 -4 -10 3 -5 -2 -10 -13 -10 -10 0 -27 -9 -37 -20 -10 -11 -25 -20 -34
-21 -12 0 -11 -3 4 -9 14 -6 15 -9 5 -10 -16 -1 77 -48 98 -49 6 -1 12 -5 12
-11 0 -5 4 -10 9 -10 10 0 135 98 139 110 2 4 -11 10 -27 12 -23 3 -28 2 -20
-8 12 -15 -37 -57 -55 -47 -6 3 -8 3 -4 -2 4 -4 -2 -16 -13 -26 -17 -14 -25
-16 -39 -6 -10 6 -17 14 -14 18 2 4 -8 9 -23 11 -39 4 -39 42 0 46 19 2 27 -1
27 -12 0 -27 22 -29 45 -3 13 14 21 28 17 33 -4 4 1 4 10 1 29 -10 28 8 0 20
-35 15 -105 46 -112 50 -3 1 -35 -20 -72 -47z m157 -20 c0 -8 -10 -16 -22 -18
-22 -3 -32 16 -16 32 12 11 38 2 38 -14z"/>
<path d="M4220 3502 c0 -8 110 -50 150 -57 22 -4 21 -3 -5 9 -43 20 -133 56
-139 56 -3 0 -6 -3 -6 -8z"/>
<path d="M3325 3459 c-9 -14 -5 -17 25 -19 39 -3 43 -1 25 16 -13 14 -18 14
-32 2 -12 -9 -15 -9 -9 0 4 6 5 12 2 12 -3 0 -8 -5 -11 -11z"/>
<path d="M3406 3431 c-3 -5 1 -11 9 -15 8 -3 15 -1 15 4 0 13 -18 22 -24 11z"/>
<path d="M4400 3437 c0 -3 15 -10 32 -16 18 -6 28 -7 23 -2 -12 10 -55 25 -55
18z"/>
<path d="M3990 3421 c0 -10 19 -25 25 -20 1 2 -3 10 -11 17 -8 7 -14 8 -14 3z"/>
<path d="M3450 3410 c0 -5 8 -10 18 -10 10 0 22 -4 28 -8 5 -5 28 -14 51 -22
23 -7 40 -16 38 -20 -5 -7 92 -40 118 -40 10 0 17 -4 17 -10 0 -5 7 -10 15
-10 8 0 42 -13 77 -29 35 -16 119 -52 188 -80 69 -27 148 -59 175 -70 28 -11
95 -38 150 -60 55 -22 117 -47 138 -55 20 -9 37 -13 37 -9 0 11 -102 63 -122
63 -9 0 -20 5 -23 10 -3 6 -13 10 -21 10 -8 0 -34 9 -57 20 -24 11 -52 22 -63
24 -17 4 -89 35 -189 81 -16 8 -47 17 -67 21 -21 3 -35 10 -32 15 3 5 -1 10
-8 10 -27 3 -47 9 -113 38 -11 5 -36 16 -57 25 -20 9 -39 16 -42 16 -4 0 -23
7 -44 17 -20 9 -39 17 -42 18 -6 2 -31 12 -102 41 -65 27 -68 28 -68 14z"/>
<path d="M3333 3387 c-4 -7 -29 -28 -55 -47 -27 -18 -48 -36 -48 -40 0 -6 7
-9 140 -64 69 -29 88 -33 101 -23 47 34 118 93 119 98 0 3 -39 20 -87 38 -49
18 -96 37 -105 42 -25 13 -56 11 -65 -4z m72 -17 c3 -5 14 -10 23 -10 9 0 30
-7 46 -15 15 -8 37 -15 47 -15 12 0 19 -7 19 -20 0 -11 -4 -20 -9 -20 -5 0
-23 -13 -39 -30 -17 -16 -38 -30 -46 -30 -17 0 -52 18 -73 37 -8 7 -20 10 -28
7 -9 -4 -15 0 -15 10 0 9 -5 16 -11 16 -5 0 -7 -4 -4 -10 10 -16 -21 -11 -36
6 -14 17 -15 16 44 51 15 10 27 21 27 25 0 12 48 10 55 -2z"/>
<path d="M3372 3328 c-14 -14 -16 -42 -2 -33 14 9 32 45 22 45 -4 0 -13 -5
-20 -12z"/>
<path d="M3413 3315 c0 -7 6 -11 14 -8 7 3 13 6 13 8 0 2 -6 5 -13 8 -8 3 -14
-1 -14 -8z"/>
<path d="M3410 3275 c0 -8 2 -15 4 -15 2 0 6 7 10 15 3 8 1 15 -4 15 -6 0 -10
-7 -10 -15z"/>
<path d="M2860 3328 c-36 -27 -66 -53 -68 -57 -2 -5 7 -11 20 -14 13 -3 94
-35 181 -71 95 -41 163 -64 170 -59 37 22 127 99 127 108 0 6 -15 17 -32 24
-68 28 -192 71 -195 68 -5 -6 57 -33 146 -65 l53 -19 -23 -24 c-13 -14 -38
-36 -56 -51 -35 -29 -39 -28 -143 19 -25 11 -55 23 -68 27 l-22 7 22 20 23 19
-25 -5 c-14 -4 -38 -1 -53 4 -21 8 -26 8 -21 0 4 -8 -1 -9 -17 -4 -54 17 -53
21 9 63 l60 42 48 -15 c27 -8 50 -13 51 -11 5 5 -98 46 -111 45 -6 0 -40 -23
-76 -51z"/>
<path d="M2893 3303 c9 -2 17 -9 17 -15 0 -5 6 -8 13 -5 6 2 22 0 35 -4 16 -6
22 -5 22 6 0 8 -8 16 -17 16 -10 1 -34 2 -53 4 -19 2 -27 1 -17 -2z"/>
<path d="M4260 3306 c0 -2 9 -6 20 -9 11 -3 18 -1 14 4 -5 9 -34 13 -34 5z"/>
<path d="M3610 3292 c0 -5 16 -13 35 -16 20 -4 34 -10 31 -14 -2 -4 8 -8 22
-9 15 0 34 -10 43 -21 11 -14 20 -17 26 -11 10 10 63 -8 63 -22 0 -6 -26 -21
-42 -23 -14 -2 -21 -16 -8 -16 9 0 7 -5 -6 -15 -23 -17 -38 -19 -28 -3 4 7 3
8 -4 4 -6 -4 -9 -13 -5 -22 4 -12 0 -14 -23 -8 -37 9 -46 23 -28 41 8 8 14 19
14 24 0 6 5 7 12 3 7 -4 8 -3 4 4 -10 17 -26 15 -26 -3 0 -8 -6 -15 -14 -15
-8 0 -16 -5 -18 -10 -2 -7 -11 -5 -23 4 -20 16 -20 16 2 22 13 3 20 10 17 15
-3 5 6 13 20 19 14 5 26 12 26 14 0 9 -36 -8 -64 -29 -14 -11 -26 -26 -26 -33
0 -10 -6 -12 -17 -7 -10 4 -26 10 -36 12 -29 9 -15 35 30 59 35 18 40 24 28
34 -11 9 -25 2 -68 -33 -40 -33 -52 -48 -44 -56 6 -6 15 -11 21 -11 5 0 54
-18 108 -40 54 -23 104 -38 111 -33 28 16 117 99 117 108 0 6 -46 27 -103 48
-122 46 -147 53 -147 39z"/>
<path d="M4330 3282 c0 -4 10 -9 22 -9 18 -2 20 0 8 7 -18 12 -30 13 -30 2z"/>
<path d="M2689 3205 c-41 -31 -75 -59 -77 -63 -3 -11 428 -194 442 -189 28 12
147 120 139 127 -4 4 -69 32 -143 61 -74 28 -168 67 -209 86 -40 18 -74 33
-75 33 -2 0 -36 -25 -77 -55z m123 18 c2 -5 27 -16 56 -26 54 -19 184 -75 235
-102 16 -8 25 -10 21 -3 -4 7 -3 8 4 4 7 -4 12 -15 13 -24 0 -11 2 -12 6 -4 2
6 9 10 13 7 14 -9 -30 -47 -45 -41 -9 3 -12 0 -8 -10 5 -13 -8 -19 -32 -14 -5
1 -7 -2 -3 -6 4 -4 0 -13 -9 -20 -14 -10 -28 -8 -73 8 -30 12 -59 24 -65 28
-5 4 -21 11 -35 15 -14 4 -47 18 -75 30 -27 13 -77 35 -109 49 -59 26 -59 27
-37 42 12 9 34 27 48 40 28 25 57 32 51 12 -3 -7 -10 -14 -16 -14 -7 -1 -18
-2 -25 -3 -8 0 -19 -12 -25 -25 -18 -41 33 -68 88 -46 3 1 8 2 12 1 3 0 2 14
-3 32 -11 40 -11 40 1 32 6 -3 10 -2 10 3 0 6 -7 13 -16 16 -8 3 -12 10 -9 16
7 12 22 13 27 3z m-30 -58 c12 -17 9 -25 -10 -25 -10 0 -22 -4 -28 -10 -5 -5
-15 -5 -23 -1 -10 7 -10 13 -2 29 12 22 50 26 63 7z"/>
<path d="M4388 3253 c7 -3 16 -2 19 1 4 3 -2 6 -13 5 -11 0 -14 -3 -6 -6z"/>
<path d="M4425 3240 c-3 -5 3 -10 15 -10 12 0 18 5 15 10 -3 6 -10 10 -15 10
-5 0 -12 -4 -15 -10z"/>
<path d="M4477 3229 c7 -7 15 -10 18 -7 3 3 -2 9 -12 12 -14 6 -15 5 -6 -5z"/>
<path d="M3255 3168 c-33 -28 -60 -55 -60 -60 0 -9 210 -97 232 -98 18 0 145
112 136 121 -13 13 -211 89 -230 88 -10 0 -45 -23 -78 -51z m144 12 c21 -10
41 -16 45 -13 3 4 6 1 6 -5 0 -6 16 -14 35 -18 19 -3 37 -9 39 -13 2 -3 -8
-20 -24 -38 -26 -29 -30 -30 -49 -17 -15 11 -19 22 -15 39 4 18 0 26 -18 36
-33 19 -68 21 -68 3 0 -8 -7 -14 -15 -14 -17 0 -11 -22 19 -64 14 -21 16 -28
5 -24 -79 32 -99 42 -99 50 0 6 -7 8 -15 4 -8 -3 -15 -3 -15 0 0 8 60 64 69
64 5 0 11 7 15 15 7 21 39 19 85 -5z m11 -45 c11 -13 10 -18 -6 -30 -22 -17
-34 -15 -48 8 -19 31 31 50 54 22z m30 -71 c0 -9 5 -12 12 -8 6 4 8 3 5 -3 -3
-5 -22 -7 -41 -5 -45 5 -50 32 -6 32 21 0 30 -5 30 -16z"/>
<path d="M3375 3120 c3 -5 8 -10 11 -10 2 0 4 5 4 10 0 6 -5 10 -11 10 -5 0
-7 -4 -4 -10z"/>
<path d="M3835 3139 c-54 -46 -75 -69 -63 -69 3 0 54 -20 114 -45 59 -25 118
-45 129 -45 23 0 140 109 128 120 -4 4 -21 12 -38 18 -16 5 -39 13 -49 18 -13
5 -17 4 -12 -4 3 -6 2 -13 -4 -17 -5 -3 -10 2 -10 13 0 14 -15 25 -59 41 -32
11 -62 21 -67 21 -5 0 -36 -23 -69 -51z m114 20 c24 -7 52 -33 63 -59 6 -15
12 -20 15 -12 5 14 53 17 53 3 0 -5 -10 -12 -22 -16 l-23 -7 25 -8 c17 -5 19
-8 8 -9 -10 -1 -18 -6 -18 -12 0 -5 5 -7 12 -3 7 4 8 3 4 -4 -4 -6 -13 -9 -21
-5 -10 3 -15 -1 -15 -12 0 -17 -31 -17 -74 1 -16 6 -16 9 -5 18 15 12 49 61
49 71 0 4 -4 4 -9 0 -5 -3 -12 -1 -16 5 -9 15 -35 12 -35 -4 0 -8 7 -17 16
-20 13 -5 14 -9 4 -21 -14 -17 -60 -21 -60 -5 0 6 10 10 23 10 19 1 20 2 6 10
-12 7 -26 5 -45 -5 -20 -10 -23 -15 -11 -15 9 0 17 -4 17 -10 0 -5 -15 -2 -34
8 -19 9 -33 21 -33 26 3 12 57 66 68 66 5 0 9 5 9 11 0 6 8 9 18 6 9 -2 23 -6
31 -8z"/>
<path d="M3991 3064 c0 -11 3 -14 6 -6 3 7 2 16 -1 19 -3 4 -6 -2 -5 -13z"/>
<path d="M2535 3150 c-3 -5 1 -10 10 -10 9 0 13 5 10 10 -3 6 -8 10 -10 10 -2
0 -7 -4 -10 -10z"/>
<path d="M2500 3130 c0 -11 -7 -20 -15 -20 -8 0 -15 -5 -15 -11 0 -6 -7 -9
-15 -5 -8 3 -15 0 -15 -6 0 -6 -3 -8 -7 -5 -3 4 -12 -2 -20 -13 -8 -11 -21
-20 -29 -20 -8 0 -12 -4 -9 -10 6 -9 -8 -14 -28 -11 -5 1 -6 -3 -2 -9 3 -5 -1
-10 -10 -10 -8 0 -18 -7 -21 -15 -4 -8 -10 -15 -15 -15 -9 0 -26 -14 -78 -62
-16 -15 -31 -25 -34 -22 -7 7 0 -43 8 -55 3 -6 10 -11 16 -11 5 0 4 9 -3 20
-9 14 -10 23 -2 28 22 15 245 187 302 233 14 12 16 39 2 39 -5 0 -10 -9 -10
-20z"/>
<path d="M2498 3062 c-43 -31 -77 -59 -78 -62 0 -3 33 -20 73 -37 39 -18 108
-48 151 -67 91 -40 85 -41 184 39 48 39 59 53 49 62 -13 13 -276 123 -292 123
-5 0 -45 -26 -87 -58z m167 9 c6 -4 39 -18 75 -31 36 -13 68 -28 71 -32 3 -5
15 -10 26 -11 27 -2 20 -15 -25 -52 -24 -19 -32 -23 -23 -10 7 11 2 8 -12 -7
-17 -19 -32 -26 -43 -21 -12 4 -15 3 -10 -5 12 -20 -12 -14 -83 19 -82 39 -79
36 -53 55 27 18 27 25 5 50 -11 12 -28 18 -43 16 -20 -2 -22 -1 -10 7 8 6 11
11 6 11 -4 0 2 8 15 19 19 15 29 17 58 9 20 -6 41 -13 46 -17z m-153 -44 c-7
-8 -7 -18 -2 -27 6 -8 10 -12 10 -7 0 4 0 10 0 15 0 9 51 23 62 16 4 -3 8 -13
8 -23 0 -15 -8 -17 -55 -16 -31 1 -58 4 -60 7 -3 2 4 14 15 26 22 23 40 31 22
9z"/>
<path d="M3532 3056 c-35 -30 -63 -58 -63 -62 1 -9 227 -104 245 -104 21 1
141 119 131 129 -14 12 -216 91 -234 91 -9 0 -45 -25 -79 -54z m119 20 c5 3
26 -4 45 -15 19 -12 42 -21 50 -21 8 0 29 -7 46 -16 l30 -16 -33 -32 c-19 -18
-37 -32 -40 -30 -3 2 -13 -6 -22 -16 -13 -16 -21 -17 -54 -8 -21 5 -42 13 -48
18 -5 4 -31 15 -57 25 -30 11 -48 24 -48 34 0 14 -2 14 -10 1 -6 -10 -10 -11
-10 -3 0 7 12 21 27 30 15 10 40 30 57 45 25 23 31 25 43 12 8 -8 19 -12 24
-8z"/>
<path d="M3614 3038 c-19 -27 -10 -53 24 -63 17 -5 32 -13 32 -17 0 -5 16 6
35 23 l35 32 -30 19 c-35 21 -83 24 -96 6z m55 -14 c6 4 11 3 11 -3 0 -6 7 -8
16 -4 11 4 15 2 12 -7 -2 -7 -14 -17 -26 -21 -17 -6 -22 -5 -22 8 0 12 -3 13
-13 4 -19 -15 -28 -2 -16 22 8 15 13 16 19 7 4 -7 13 -9 19 -6z"/>
<path d="M4112 3021 c-35 -32 -60 -61 -55 -64 25 -15 236 -97 251 -97 18 0
140 116 131 124 -8 8 -243 96 -254 96 -5 -1 -39 -27 -73 -59z m117 23 c22 -5
30 -11 27 -20 -4 -11 1 -13 21 -8 20 6 24 4 18 -7 -6 -11 -5 -11 5 -2 10 9 22
7 54 -10 23 -11 44 -20 49 -19 18 5 4 -15 -23 -33 -16 -11 -30 -26 -30 -33 0
-25 -44 -35 -89 -20 l-42 15 24 16 c26 17 30 53 8 67 -15 9 -71 -19 -71 -35 0
-6 5 -16 12 -23 13 -13 -17 -6 -78 19 l-31 12 25 29 c14 15 31 28 38 28 6 0
14 7 18 15 6 17 18 18 65 9z m19 -89 c-12 -27 -24 -30 -48 -15 -19 12 -17 14
57 39 2 1 -3 -10 -9 -24z"/>
<path d="M4378 3073 c7 -3 16 -2 19 1 4 3 -2 6 -13 5 -11 0 -14 -3 -6 -6z"/>
<path d="M3153 3002 c-39 -31 -72 -60 -72 -63 -1 -6 35 -23 177 -81 l73 -30
46 39 c25 21 57 47 71 59 14 11 23 26 21 33 -4 12 -212 101 -233 101 -6 -1
-43 -27 -83 -58z m185 3 c23 -9 42 -21 42 -27 0 -5 4 -7 9 -3 5 3 21 0 34 -6
23 -11 24 -12 9 -30 -9 -11 -21 -19 -26 -19 -6 0 -25 -16 -43 -36 l-32 -37
-48 18 c-26 10 -62 26 -79 35 -17 10 -45 21 -62 25 -18 3 -32 11 -32 16 0 12
13 12 28 -1 9 -7 9 -7 2 2 -15 18 -12 31 5 25 8 -4 17 -1 21 5 4 7 3 8 -4 4
-7 -4 -12 -5 -12 -2 0 3 15 12 33 19 17 8 38 21 45 30 14 17 31 14 110 -18z"/>
<path d="M3279 2985 c-3 -2 -16 -6 -30 -8 -17 -3 -23 -10 -21 -23 5 -23 6 -25
27 -28 9 -1 21 -9 26 -17 8 -12 10 -12 19 1 5 8 15 15 21 15 7 0 13 8 15 18 1
9 -2 17 -7 17 -6 0 -8 4 -5 9 8 13 -34 28 -45 16z m31 -23 c0 -13 -29 -48 -30
-35 0 6 -10 13 -22 16 -23 4 -23 4 2 15 30 13 50 15 50 4z"/>
<path d="M3811 2939 c-38 -36 -61 -63 -55 -69 13 -13 205 -92 234 -96 19 -3
39 9 89 55 35 32 61 63 58 69 -8 11 -230 102 -250 102 -6 -1 -41 -28 -76 -61z
m129 21 c0 -4 6 -7 13 -6 25 2 16 -19 -12 -26 -37 -10 -58 -35 -43 -50 9 -9 8
-15 -1 -27 -10 -12 -9 -13 3 -6 8 5 24 11 34 12 11 2 25 8 31 13 7 5 16 6 20
2 5 -4 5 -2 1 5 -3 6 -1 15 4 18 7 5 5 12 -7 20 -17 13 -17 14 0 20 9 4 24 5
32 1 8 -3 17 -5 20 -6 13 0 65 -31 65 -39 0 -5 -9 -19 -21 -32 -11 -13 -17
-17 -13 -9 7 13 6 13 -9 1 -10 -8 -15 -16 -13 -18 2 -3 -3 -13 -12 -24 -16
-19 -52 -25 -66 -12 -3 4 -12 8 -19 9 -7 1 -41 15 -77 32 -36 16 -71 31 -78
34 -9 2 -1 16 23 41 20 21 41 35 46 32 5 -4 9 1 9 10 0 9 4 14 9 10 5 -3 12
-1 15 4 7 10 46 3 46 -9z m40 -62 c0 -6 -6 -8 -13 -5 -8 3 -20 1 -28 -5 -11
-7 -9 -8 6 -3 15 5 17 3 8 -6 -6 -6 -19 -9 -29 -5 -16 6 -16 8 0 25 17 19 56
18 56 -1z"/>
<path d="M2315 2927 c-46 -34 -85 -67 -85 -73 0 -6 53 -34 117 -62 96 -41 121
-48 138 -40 30 17 145 111 145 119 0 11 -12 18 -127 70 l-103 47 -85 -61z
m151 1 c10 6 35 1 30 -6 -3 -5 20 -17 50 -27 30 -10 54 -20 54 -23 0 -7 -50
-52 -56 -50 -4 0 -21 -11 -40 -25 -18 -15 -38 -27 -43 -27 -15 0 -121 48 -121
54 0 4 3 5 8 4 14 -4 53 23 47 33 -4 5 -19 16 -35 24 -25 13 -29 13 -41 -2
-12 -14 -11 -15 10 -8 16 5 21 4 17 -4 -4 -6 -2 -10 5 -9 6 2 14 -3 17 -11 3
-10 0 -12 -14 -7 -11 4 -23 8 -29 9 -5 1 -13 7 -17 12 -5 6 -8 6 -8 -2 0 -7 8
-17 18 -22 9 -6 12 -11 4 -11 -7 0 -20 5 -30 11 -18 11 -17 13 7 38 64 65 115
87 145 62 10 -9 20 -15 22 -13z"/>
<path d="M2838 2917 c-59 -47 -74 -65 -65 -73 7 -7 61 -33 121 -59 125 -54
117 -55 211 30 40 35 57 57 50 63 -10 10 -225 103 -235 101 -3 0 -40 -28 -82
-62z m175 9 c21 -9 35 -21 32 -25 -3 -5 4 -7 15 -4 11 3 20 0 20 -6 0 -6 8
-11 18 -11 25 0 23 -35 -3 -51 -17 -10 -19 -10 -10 2 6 8 3 7 -6 -3 -9 -9 -20
-14 -24 -10 -5 4 -5 -1 -2 -11 4 -10 3 -16 -2 -12 -5 3 -16 -3 -23 -13 -17
-23 -22 -22 -107 13 -49 21 -70 34 -66 44 4 11 2 11 -8 3 -10 -9 -18 -8 -32 2
-17 12 -15 15 21 42 21 16 45 37 52 47 16 21 66 18 125 -7z"/>
<path d="M2980 2910 c13 -8 13 -10 -2 -10 -10 0 -26 -9 -36 -21 -16 -17 -18
-24 -8 -45 8 -18 13 -21 21 -11 6 7 25 23 43 36 18 13 31 25 28 28 -6 6 -40
-12 -61 -33 -9 -9 -19 -13 -23 -9 -4 4 8 19 26 34 36 31 40 41 15 41 -15 0
-16 -2 -3 -10z"/>
<path d="M4411 2914 c-33 -31 -61 -62 -61 -68 0 -6 34 -25 75 -42 l75 -32 -2
39 c-3 40 -12 50 -21 25 -3 -7 0 -19 6 -25 7 -7 -10 -4 -37 6 -27 10 -51 24
-53 30 -7 18 47 72 66 66 14 -4 14 -3 1 5 -12 9 -9 13 13 21 15 6 27 15 27 21
0 23 -31 7 -89 -46z"/>
<path d="M3441 2889 c-40 -34 -70 -66 -68 -72 4 -13 215 -106 242 -107 24 0
148 118 141 135 -2 6 -35 23 -73 37 -37 14 -91 35 -119 46 l-52 21 -71 -60z
m144 14 c11 -6 34 -17 50 -24 40 -17 37 -16 63 -24 28 -9 25 -33 -7 -60 -13
-11 -34 -30 -48 -42 -13 -13 -27 -23 -31 -23 -19 0 -222 89 -222 98 0 2 7 2
14 -1 10 -4 13 -1 9 9 -3 7 -1 14 3 14 5 0 26 15 47 34 39 35 80 41 122 19z"/>
<path d="M3565 2878 c-32 -17 -56 -46 -45 -53 6 -4 8 -10 5 -15 -3 -5 4 -14
15 -20 20 -11 24 -10 65 28 19 17 19 22 -3 49 -14 18 -21 20 -37 11z m30 -28
c10 -16 -16 -41 -38 -38 -11 2 -23 10 -25 18 -4 13 -3 13 11 2 12 -11 20 -11
34 -2 16 10 16 11 1 6 -18 -5 -32 6 -21 18 10 9 31 7 38 -4z"/>
<path d="M4102 2818 c-76 -74 -81 -66 85 -132 82 -33 119 -43 131 -37 36 20
126 121 117 130 -14 13 -235 101 -254 101 -9 0 -45 -28 -79 -62z m88 32 c6 10
19 7 56 -10 26 -13 53 -23 61 -23 7 0 13 -4 13 -9 0 -4 6 -8 13 -8 18 0 67
-24 67 -32 0 -5 -9 -17 -20 -28 -11 -11 -20 -18 -20 -15 0 3 -11 -5 -25 -19
-14 -14 -25 -30 -25 -36 0 -5 -5 -10 -10 -10 -10 0 -50 20 -60 30 -3 3 -12 6
-20 8 -8 1 -35 10 -59 18 -32 12 -40 19 -30 26 10 6 7 7 -9 3 -13 -4 -29 -1
-37 5 -17 14 -10 31 9 24 8 -3 17 0 22 7 4 8 3 10 -4 5 -7 -4 -12 -2 -12 4 0
6 8 14 18 17 9 4 23 14 30 22 9 10 11 11 6 2 -5 -9 -3 -12 4 -7 7 4 12 15 13
24 0 12 2 13 6 3 4 -10 7 -11 13 -1z"/>
<path d="M4241 2813 c-6 -10 -11 -13 -11 -6 0 7 -7 10 -15 7 -8 -4 -12 -10 -9
-15 3 -5 1 -9 -5 -9 -6 0 -15 -9 -20 -19 -8 -14 -7 -20 3 -24 10 -4 13 0 11
14 -2 11 0 17 5 14 5 -3 11 -1 15 5 8 13 42 13 51 -1 3 -6 1 -15 -6 -19 -7 -4
-10 -13 -6 -19 5 -7 1 -9 -8 -5 -19 7 -22 34 -4 34 6 0 8 3 5 6 -9 9 -37 -15
-37 -31 0 -6 6 -12 13 -13 6 0 21 -2 32 -4 12 -2 20 3 20 12 1 8 5 14 11 13
19 -3 9 47 -13 62 -20 14 -23 14 -32 -2z m49 -23 c0 -5 -2 -10 -4 -10 -3 0 -8
5 -11 10 -3 6 -1 10 4 10 6 0 11 -4 11 -10z"/>
<path d="M2585 2804 c-38 -30 -75 -61 -81 -70 -7 -9 -19 -12 -30 -8 -24 9 -16
0 15 -16 15 -8 21 -8 17 -1 -10 16 -8 15 110 -39 60 -27 118 -50 129 -50 23 0
168 117 163 132 -5 14 -208 107 -233 107 -11 0 -51 -25 -90 -55z m143 16 c23
-7 42 -17 42 -22 0 -5 5 -6 10 -3 14 9 13 -8 -2 -23 -9 -9 -7 -13 5 -18 9 -3
14 -10 11 -15 -3 -5 3 -6 12 -2 13 5 16 3 11 -10 -3 -9 -2 -19 4 -22 5 -4 8
-1 7 7 -2 7 3 12 10 11 6 -2 12 2 12 7 0 6 -7 10 -15 10 -8 0 -15 4 -15 9 0 5
-10 12 -22 14 -13 3 -6 4 14 4 20 -1 34 -5 31 -10 -4 -6 5 -8 21 -5 l28 6 -33
-34 c-18 -19 -34 -32 -36 -30 -2 2 -17 -9 -33 -25 -16 -16 -37 -29 -47 -28
-12 0 -9 4 10 11 15 5 27 16 27 24 0 18 -14 18 -30 -1 -9 -11 -17 -12 -31 -4
-26 13 -13 32 16 25 14 -4 25 -1 28 8 4 10 -3 13 -24 11 -16 -1 -29 2 -29 7 0
11 -70 43 -88 39 -16 -3 -12 28 5 47 7 7 17 10 23 7 6 -4 10 -3 9 2 -4 24 0
25 69 3z m-118 -70 c0 -17 -22 -22 -36 -8 -12 12 -10 14 11 16 14 1 25 -2 25
-8z m60 -32 c0 -7 -48 -3 -56 5 -3 3 -3 10 0 15 6 11 56 -7 56 -20z m-100 12
c0 -5 -4 -10 -9 -10 -6 0 -13 5 -16 10 -3 6 1 10 9 10 9 0 16 -4 16 -10z m134
-31 c-7 -11 -34 -12 -34 -1 0 14 11 21 26 15 8 -3 11 -9 8 -14z m-79 1 c3 -5
2 -10 -4 -10 -5 0 -13 5 -16 10 -3 6 -2 10 4 10 5 0 13 -4 16 -10z m32 -5 c0
-8 -4 -12 -9 -9 -5 3 -6 10 -3 15 9 13 12 11 12 -6z"/>
<path d="M3116 2794 c-43 -37 -74 -70 -69 -74 22 -19 246 -110 256 -104 7 4
43 34 80 67 56 49 66 62 55 73 -13 12 -221 104 -237 104 -4 0 -42 -30 -85 -66z
m119 37 c3 -5 18 -12 34 -16 15 -3 37 -14 47 -24 21 -19 25 -21 57 -22 21 0
21 -1 2 -8 -19 -8 -18 -9 5 -12 32 -5 34 -34 3 -33 -14 0 -25 -7 -29 -18 -3
-10 -13 -18 -22 -18 -13 0 -14 -2 -3 -9 9 -6 10 -11 2 -15 -6 -4 -16 -4 -21
-1 -6 4 -9 1 -8 -7 2 -7 -4 -12 -14 -10 -16 3 -198 80 -208 89 -2 2 22 28 54
58 55 52 88 67 101 46z"/>
<path d="M3229 2780 c-23 -13 -12 -90 13 -90 5 0 6 4 3 10 -3 5 5 12 19 16 13
3 27 12 30 20 5 12 0 12 -31 -1 -45 -19 -43 -19 -30 9 9 19 15 22 25 14 9 -8
16 -8 24 0 9 9 8 12 -5 12 -9 0 -17 5 -17 10 0 12 -10 12 -31 0z"/>
<path d="M3725 2764 c-42 -37 -73 -70 -68 -75 14 -14 246 -110 259 -107 22 6
146 130 138 138 -5 4 -47 24 -94 43 -47 20 -102 42 -122 51 l-37 16 -76 -66z
m129 15 c-3 -5 7 -9 21 -9 14 0 45 -9 67 -20 23 -11 47 -20 54 -20 21 0 33
-24 19 -37 -7 -6 -16 -9 -19 -6 -3 4 -6 -1 -6 -10 0 -9 -6 -17 -13 -17 -7 0
-21 -11 -31 -25 -22 -30 -52 -32 -109 -7 -23 10 -61 27 -84 37 -24 10 -43 22
-43 27 0 5 -4 7 -9 4 -5 -4 -7 3 -4 14 3 11 9 17 14 15 10 -7 49 30 49 46 0 5
4 8 8 5 5 -3 16 4 25 14 14 17 21 18 41 8 14 -6 23 -15 20 -19z"/>
<path d="M3810 2737 c0 -6 -8 -19 -17 -29 -16 -18 -16 -18 2 -12 12 5 16 4 11
-4 -4 -7 6 -13 28 -17 43 -8 71 10 71 45 0 23 -4 25 -48 26 -26 1 -47 -3 -47
-9z m71 -13 c11 -14 10 -18 -5 -30 -13 -9 -24 -10 -37 -3 -16 8 -17 13 -6 29
14 24 30 25 48 4z"/>
<path d="M3845 2710 c-3 -5 1 -10 9 -10 9 0 16 5 16 10 0 6 -4 10 -9 10 -6 0
-13 -4 -16 -10z"/>
<path d="M4400 2695 c-39 -39 -60 -68 -55 -73 9 -8 139 -62 150 -62 3 0 5 4 5
10 0 5 -22 17 -50 27 -27 10 -50 21 -50 26 0 4 -4 6 -9 3 -4 -3 -6 6 -3 19 2
14 7 25 11 25 4 0 24 16 44 35 21 20 42 33 47 30 6 -4 10 1 10 9 0 33 -38 14
-100 -49z"/>
<path d="M2869 2678 c-41 -34 -74 -68 -74 -75 0 -15 206 -113 237 -113 21 0
163 116 163 133 0 9 -226 117 -245 117 -4 0 -41 -28 -81 -62z m152 16 c6 -8
17 -14 23 -14 6 0 13 -9 14 -20 4 -44 6 -49 15 -43 6 4 8 0 4 -10 -4 -12 -1
-14 16 -10 42 9 72 13 57 6 -8 -3 -30 -21 -48 -40 -32 -31 -67 -38 -41 -7 6 8
9 17 5 21 -3 3 -6 1 -6 -6 0 -9 -5 -9 -20 -1 -11 6 -17 16 -14 22 4 6 3 9 -2
6 -5 -3 -20 -1 -34 5 -14 5 -31 11 -38 13 -8 1 -21 6 -30 10 -31 14 -52 12
-52 -5 0 -14 -2 -14 -10 -1 -5 8 -12 12 -15 8 -4 -3 6 -18 22 -32 15 -14 22
-26 15 -26 -6 0 -21 9 -31 19 -11 11 -22 17 -25 14 -3 -4 -6 -1 -6 5 0 7 19
24 42 39 23 16 52 37 65 49 25 23 74 22 94 -2z m69 -49 c0 -8 5 -15 11 -15 5
0 7 5 3 11 -4 7 1 7 16 -1 24 -13 24 -12 -9 -30 -15 -8 -21 -8 -17 -1 4 6 2
11 -3 11 -6 0 -11 6 -11 14 0 8 -6 17 -12 19 -8 3 -6 6 5 6 9 1 17 -6 17 -14z
m-167 -37 c12 -7 31 -13 41 -15 11 -2 27 -10 36 -18 9 -8 22 -15 29 -15 8 0
11 -6 7 -15 -3 -8 -1 -15 5 -15 6 0 7 -4 4 -10 -3 -5 -11 -10 -16 -10 -6 0 -7
5 -4 10 4 6 -10 17 -29 25 -20 9 -36 19 -36 23 0 4 -11 9 -26 10 -33 3 -66 21
-59 33 8 12 22 11 48 -3z"/>
<path d="M3000 2690 c0 -5 5 -10 11 -10 5 0 7 5 4 10 -3 6 -8 10 -11 10 -2 0
-4 -4 -4 -10z"/>
<path d="M3407 2673 c-61 -53 -75 -70 -65 -79 7 -7 66 -36 131 -64 l118 -51
47 40 c74 62 107 100 96 110 -7 8 -239 111 -248 111 -1 0 -37 -30 -79 -67z
m155 19 c14 -6 29 -16 33 -22 3 -5 10 -8 15 -5 5 3 11 1 15 -5 4 -6 11 -7 17
-4 8 5 9 1 4 -12 -6 -15 -5 -16 5 -7 8 8 18 9 31 2 19 -10 25 -49 7 -49 -18 0
-66 -45 -62 -57 3 -8 -4 -11 -17 -8 -16 3 -20 0 -17 -10 5 -11 0 -12 -26 -3
-18 6 -39 16 -47 23 -8 6 -22 11 -30 10 -8 0 -17 2 -20 5 -3 3 -26 14 -52 24
-27 10 -48 21 -48 25 0 15 46 57 58 53 7 -2 12 1 12 7 0 6 8 20 18 30 19 21
59 22 104 3z"/>
<path d="M3503 2634 l-28 -27 25 8 c14 4 29 13 33 19 6 8 10 8 13 -1 3 -7 12
-9 20 -6 8 3 14 0 14 -6 0 -6 -6 -11 -14 -11 -8 0 -17 -6 -20 -12 -5 -10 -7
-10 -12 -1 -6 13 -34 6 -34 -9 0 -5 4 -7 9 -4 5 3 12 -2 15 -11 6 -15 8 -15
16 -3 6 8 10 11 10 5 0 -5 7 1 16 13 8 12 20 20 25 17 5 -3 6 2 2 11 -5 13 -3
15 7 9 9 -5 11 -4 6 4 -4 6 -11 9 -16 6 -4 -3 -10 -1 -12 4 -9 23 -47 21 -75
-5z"/>
<path d="M4016 2634 c-37 -36 -64 -69 -60 -74 15 -13 247 -110 264 -110 8 0
45 29 80 65 56 57 62 67 50 79 -16 15 -233 106 -253 106 -7 -1 -43 -30 -81
-66z m111 34 c15 -6 34 -10 41 -9 6 1 12 -3 12 -9 0 -5 3 -9 8 -8 4 2 27 -6
52 -16 25 -11 47 -20 50 -21 26 -8 40 -19 40 -31 0 -8 -4 -14 -10 -14 -5 0
-27 -18 -47 -40 -31 -33 -45 -40 -76 -40 -21 0 -36 4 -33 9 7 10 -16 21 -44
21 -10 0 -26 7 -34 16 -9 8 -26 16 -38 17 -13 2 -33 8 -45 15 -21 12 -21 14
-6 32 13 15 20 17 30 8 11 -8 12 -7 7 7 -5 13 -4 16 5 11 6 -4 10 -3 9 3 -3
11 32 60 44 61 4 0 19 -5 35 -12z"/>
<path d="M4134 2613 c-16 -15 -30 -25 -32 -24 -2 1 -7 -1 -10 -5 -4 -4 -1 -4
6 0 7 4 12 2 12 -6 0 -7 14 2 30 20 19 20 30 27 30 17 0 -8 7 -15 17 -15 14 0
14 2 -2 20 -10 11 -19 20 -20 20 -1 0 -15 -12 -31 -27z"/>
<path d="M4147 2579 c-9 -6 -17 -14 -17 -19 0 -13 37 -13 45 0 3 6 1 10 -6 10
-7 0 -9 3 -6 6 4 4 13 1 22 -6 12 -10 15 -10 15 2 0 16 -28 20 -53 7z"/>
<path d="M3148 2542 c-58 -51 -74 -70 -65 -78 20 -19 300 -144 322 -144 11 1
53 31 93 68 58 54 71 70 60 79 -19 15 -305 143 -320 143 -7 0 -48 -31 -90 -68z
m97 38 c4 -6 15 -8 26 -5 11 4 19 2 19 -5 0 -6 5 -8 10 -5 6 3 10 1 10 -5 0
-6 4 -9 9 -6 16 10 106 -41 106 -60 0 -10 6 -19 14 -22 8 -3 11 0 7 7 -4 6 -1
11 8 11 9 0 16 -5 16 -11 0 -6 7 -9 15 -5 19 7 19 -1 1 -20 -16 -16 -36 -19
-36 -5 0 5 -8 8 -17 7 -10 0 -17 5 -15 12 1 6 -3 12 -8 12 -23 0 -7 -30 26
-49 l37 -22 14 21 c17 24 33 26 33 4 0 -10 -6 -14 -15 -10 -8 3 -15 2 -15 -2
0 -10 -54 -72 -63 -72 -4 0 -7 7 -7 15 0 8 5 15 11 15 6 0 7 5 2 13 -4 6 -8
17 -8 22 0 6 -11 9 -25 7 -13 -1 -26 1 -29 5 -8 10 -112 53 -129 53 -7 0 -10
5 -6 12 4 7 3 8 -4 4 -7 -4 -18 -4 -24 1 -7 4 -19 8 -27 10 -29 4 14 -23 74
-47 33 -13 63 -28 66 -33 3 -5 8 -8 10 -7 2 1 17 -3 32 -9 16 -6 35 -11 43
-11 16 0 19 -16 3 -25 -6 -4 -8 -13 -5 -21 3 -8 -1 -14 -9 -14 -8 0 -12 6 -9
14 5 14 -110 76 -199 107 -25 9 -36 18 -32 27 3 7 5 18 5 22 0 16 54 64 58 51
2 -6 8 -8 13 -5 6 3 5 11 -2 20 -7 9 -8 14 -1 14 6 0 14 -5 17 -10z m-87 -119
c9 -6 12 -11 5 -11 -15 0 -43 28 -43 43 0 7 5 4 11 -5 5 -10 17 -22 27 -27z
m91 -47 c15 -14 13 -14 -14 -3 -41 17 -54 30 -25 24 13 -3 31 -12 39 -21z"/>
<path d="M3701 2541 c-46 -41 -72 -72 -67 -79 4 -7 12 -12 17 -12 5 0 59 -22
119 -50 60 -27 115 -50 122 -50 12 0 118 96 118 106 0 2 -9 4 -20 4 -13 0 -24
-10 -30 -25 -5 -14 -12 -25 -15 -25 -4 0 -3 6 1 13 4 6 -2 3 -13 -8 -11 -11
-19 -23 -17 -26 2 -4 -3 -10 -11 -13 -21 -8 -147 43 -139 56 4 6 -2 8 -15 3
-13 -4 -21 -2 -21 5 0 6 -3 9 -8 6 -4 -2 -18 1 -30 8 l-23 12 27 30 c15 16 27
30 26 32 -1 1 1 3 6 4 4 1 18 12 32 25 25 23 50 29 64 16 3 -4 15 -8 25 -10
11 -1 41 -14 67 -28 26 -14 53 -25 60 -25 13 0 16 -7 13 -27 0 -3 7 -10 16
-16 20 -11 40 5 32 25 -4 12 -240 120 -257 118 -3 0 -38 -31 -79 -69z m-21
-51 c0 -5 -5 -10 -11 -10 -5 0 -7 5 -4 10 3 6 8 10 11 10 2 0 4 -4 4 -10z"/>
<path d="M4322 2507 c-34 -34 -62 -66 -62 -70 0 -9 217 -107 237 -107 8 0 2
30 -9 36 -7 5 -8 3 -3 -6 4 -7 4 -11 -1 -9 -52 24 -94 44 -116 56 -15 7 -30
13 -33 13 -3 0 -13 3 -21 8 -20 11 -9 34 39 80 40 39 66 42 130 17 9 -4 17 -3
17 3 0 10 -76 42 -101 42 -8 0 -43 -28 -77 -63z"/>
<path d="M3821 2522 c-40 -20 -48 -46 -20 -66 21 -14 69 -10 69 6 0 5 4 7 8 4
15 -9 10 30 -6 52 -17 21 -18 22 -51 4z m43 -18 c28 -11 17 -24 -14 -17 -19 3
-30 1 -30 -6 0 -6 10 -11 23 -12 12 0 16 -3 9 -6 -21 -8 -59 5 -59 21 0 8 4
13 8 10 4 -2 10 0 14 6 7 11 26 13 49 4z"/>
<path d="M4444 2492 c3 -5 -1 -12 -9 -16 -19 -7 -19 -43 0 -63 21 -21 65 -9
65 18 0 24 -27 36 -43 19 -9 -10 -7 -11 11 -5 13 4 22 2 22 -5 0 -18 -31 -24
-46 -8 -14 13 -14 17 0 31 9 8 25 13 36 10 12 -3 20 0 20 6 0 7 -4 9 -10 6 -5
-3 -19 -1 -31 6 -12 6 -19 7 -15 1z"/>
<path d="M4009 2413 c-38 -36 -69 -72 -69 -78 0 -10 252 -125 274 -125 14 0
147 143 139 150 -9 9 -259 120 -269 120 -3 0 -37 -30 -75 -67z m104 29 c-1 -5
7 -8 17 -5 16 4 19 2 14 -13 -6 -15 -4 -17 6 -7 10 10 19 9 39 -1 38 -20 89
-39 96 -35 4 2 13 -7 20 -21 12 -22 11 -27 -7 -47 -12 -12 -25 -20 -30 -17 -5
3 -7 0 -6 -8 2 -7 -5 -12 -14 -12 -9 1 -14 -4 -12 -10 7 -17 -33 -38 -53 -27
-10 5 -29 13 -43 19 -83 35 -160 74 -160 82 0 5 9 12 20 15 11 4 18 11 15 16
-3 5 10 24 29 43 22 22 36 31 40 23 2 -7 5 -4 5 6 1 11 7 17 14 14 6 -2 11 -9
10 -15z"/>
<path d="M4118 2375 c-22 -30 -22 -31 2 -55 16 -16 25 -18 40 -10 30 16 24 27
-12 22 -26 -4 -30 -2 -25 12 4 10 7 22 7 27 0 5 5 9 11 9 6 0 9 -7 5 -15 -6
-18 -1 -19 25 -4 22 11 17 31 -6 22 -8 -3 -15 0 -15 6 0 18 -14 12 -32 -14z"/>
<path d="M4215 2370 c-3 -6 1 -7 9 -4 18 7 21 14 7 14 -6 0 -13 -4 -16 -10z"/>
<path d="M3521 2376 c-64 -64 -73 -77 -61 -90 7 -9 16 -16 21 -16 5 0 46 -17
91 -38 46 -21 128 -58 183 -83 55 -24 101 -47 103 -51 2 -4 19 -10 38 -14 19
-3 34 -10 34 -15 0 -5 7 -9 15 -9 8 0 23 -4 33 -10 36 -20 189 -88 225 -101
20 -7 37 -17 37 -21 0 -4 9 -8 20 -8 11 0 20 -4 20 -9 0 -5 10 -11 23 -14 46
-12 97 -32 97 -39 0 -5 8 -8 18 -8 9 0 28 -9 42 -20 32 -25 40 -25 40 0 0 14
-7 20 -22 20 -26 1 -61 24 -51 33 3 4 -8 7 -25 7 -17 0 -34 5 -37 10 -4 6 -11
8 -16 5 -5 -4 -9 -3 -9 2 0 7 -47 28 -103 47 -11 3 -15 11 -11 17 4 8 3 9 -5
5 -6 -4 -26 1 -44 12 -17 10 -59 30 -92 43 -33 13 -75 32 -93 41 -18 10 -39
18 -48 18 -8 0 -12 5 -9 10 4 6 -7 10 -24 10 -17 0 -31 5 -31 10 0 6 -4 10 -9
10 -5 0 -26 7 -47 16 -22 9 -41 16 -44 16 -3 0 -12 5 -20 12 -8 7 -49 25 -90
41 -41 15 -82 34 -91 41 -8 8 -21 14 -27 14 -7 0 -12 5 -12 11 0 6 -7 9 -15 6
-24 -10 -27 10 -5 45 11 18 20 29 20 23 0 -5 8 -1 18 10 9 12 25 24 35 28 10
4 15 11 12 17 -3 5 3 10 14 10 12 0 21 -5 21 -11 0 -5 4 -8 9 -4 14 8 61 -16
54 -28 -3 -6 -1 -7 5 -4 13 9 44 -2 37 -13 -3 -5 4 -6 15 -3 12 3 22 -1 26
-11 3 -9 10 -13 15 -10 5 3 24 -4 43 -15 18 -11 36 -18 39 -14 4 3 7 1 7 -5 0
-6 7 -9 15 -6 8 4 15 1 15 -4 0 -6 10 -14 23 -17 27 -8 66 -24 137 -59 30 -14
61 -26 68 -26 6 0 21 -8 31 -17 11 -9 30 -18 42 -20 13 -2 30 -10 38 -18 9 -7
18 -13 21 -13 13 2 56 -16 62 -26 5 -7 8 -5 8 5 0 9 -14 22 -32 30 -18 7 -89
39 -157 71 -68 32 -125 58 -126 58 -2 0 -32 13 -67 29 -152 70 -359 161 -366
161 -4 0 -41 -33 -81 -74z m-11 -50 c0 -2 -7 -6 -15 -10 -8 -3 -15 -1 -15 4 0
6 7 10 15 10 8 0 15 -2 15 -4z"/>
<path d="M2969 2397 c-14 -12 -110 -94 -214 -182 -103 -88 -193 -164 -199
-170 -6 -5 -38 -32 -71 -60 -74 -61 -118 -100 -164 -143 -20 -19 -55 -48 -79
-65 -24 -17 -38 -33 -31 -36 7 -2 18 4 24 13 7 9 15 16 19 16 4 0 13 6 20 13
13 12 89 76 130 109 11 10 30 26 41 37 11 10 38 31 59 45 21 14 35 26 30 26
-4 0 7 11 25 24 18 14 49 39 70 58 20 18 68 60 106 93 39 33 72 62 75 65 21
23 173 151 190 160 29 15 53 9 190 -55 63 -29 201 -92 305 -140 105 -47 213
-97 240 -110 28 -12 73 -33 100 -45 28 -12 82 -37 120 -55 39 -18 97 -45 130
-60 33 -15 123 -58 200 -95 196 -95 215 -103 215 -84 0 8 -4 13 -9 10 -4 -3
-25 4 -47 14 -21 11 -44 20 -52 20 -7 0 -11 4 -8 9 7 10 -49 33 -58 24 -3 -4
-6 -2 -6 4 0 6 -21 20 -47 31 -44 19 -164 74 -273 125 -25 12 -47 22 -50 23
-7 1 -221 99 -585 266 -327 151 -347 157 -396 115z"/>
<path d="M4320 2268 c-36 -39 -64 -74 -63 -77 1 -3 32 -18 70 -34 37 -15 88
-37 113 -49 25 -12 48 -24 53 -26 4 -2 7 1 7 7 0 5 -18 17 -40 27 -21 10 -37
22 -33 27 3 5 -3 7 -13 6 -21 -4 -84 22 -84 33 0 5 -9 8 -20 8 -11 0 -20 7
-20 15 0 8 3 14 8 13 4 -2 30 19 57 46 27 28 43 46 35 42 -12 -7 -13 -6 -2 5
10 11 16 11 32 1 11 -6 27 -12 35 -12 8 0 15 -4 15 -10 0 -5 7 -7 16 -3 13 5
6 12 -27 29 -24 13 -51 23 -59 23 -8 0 -44 -32 -80 -71z"/>
<path d="M4434 2239 c-21 -23 -17 -35 5 -15 13 12 27 16 43 11 16 -4 19 -3 9
3 -11 8 -11 10 0 15 8 2 1 4 -14 3 -16 0 -35 -8 -43 -17z"/>
<path d="M479 2230 c-13 -10 -20 -19 -16 -20 4 0 17 9 29 20 28 26 17 26 -13
0z"/>
<path d="M4491 2194 c0 -11 3 -14 6 -6 3 7 2 16 -1 19 -3 4 -6 -2 -5 -13z"/>
<path d="M447 2180 c3 -11 7 -20 9 -20 2 0 4 9 4 20 0 11 -4 20 -9 20 -5 0 -7
-9 -4 -20z"/>
<path d="M4445 2180 c-4 -6 3 -10 14 -10 25 0 27 6 6 13 -8 4 -17 2 -20 -3z"/>
<path d="M4360 2100 c0 -6 7 -10 15 -10 8 0 15 -5 15 -12 0 -6 3 -8 7 -5 3 4
13 1 22 -7 9 -8 32 -17 51 -20 28 -6 32 -5 17 4 -40 25 -127 59 -127 50z"/>
<path d="M2170 1713 c0 -14 2 -15 9 -4 5 8 14 10 21 6 9 -5 11 -4 6 3 -11 18
-36 14 -36 -5z"/>
<path d="M2115 1669 c-34 -33 -30 -40 5 -9 13 11 29 20 37 20 8 0 11 5 8 10
-9 15 -17 12 -50 -21z"/>
<path d="M2051 1614 c-13 -13 -19 -24 -14 -24 12 0 48 38 42 44 -2 3 -15 -6
-28 -20z"/>
<path d="M2030 1565 c-7 -9 -11 -17 -9 -20 3 -2 10 5 17 15 14 24 10 26 -8 5z"/>
<path d="M1435 1560 c-3 -5 -1 -10 4 -10 6 0 11 5 11 10 0 6 -2 10 -4 10 -3 0
-8 -4 -11 -10z"/>
<path d="M1962 1540 c-12 -12 -22 -24 -22 -27 0 -3 8 1 18 10 10 10 22 14 27
10 4 -5 5 -3 2 4 -4 6 -1 14 5 16 7 3 8 6 2 6 -5 1 -20 -8 -32 -19z"/>
<path d="M1500 1524 c0 -8 5 -12 10 -9 6 4 8 11 5 16 -9 14 -15 11 -15 -7z"/>
<path d="M1520 1500 c0 -5 5 -10 11 -10 5 0 7 5 4 10 -3 6 -8 10 -11 10 -2 0
-4 -4 -4 -10z"/>
<path d="M1581 1474 c0 -11 3 -14 6 -6 3 7 2 16 -1 19 -3 4 -6 -2 -5 -13z"/>
<path d="M1610 1461 c0 -6 4 -13 10 -16 6 -3 7 1 4 9 -7 18 -14 21 -14 7z"/>
<path d="M4362 1430 c0 -14 2 -19 5 -12 2 6 2 18 0 25 -3 6 -5 1 -5 -13z"/>
<path d="M1641 1428 c-1 -20 14 -24 25 -6 4 6 3 8 -4 4 -5 -3 -13 0 -15 6 -3
8 -6 6 -6 -4z"/>
<path d="M1760 1366 c0 -2 9 -6 20 -9 11 -3 18 -1 14 4 -5 9 -34 13 -34 5z"/>
<path d="M1817 1335 c8 -22 80 -56 80 -38 0 7 -9 13 -19 13 -11 0 -17 4 -14 9
3 5 -2 8 -12 7 -9 0 -16 5 -14 12 1 6 -5 12 -13 12 -9 0 -12 -6 -8 -15z"/>
<path d="M1919 1277 c7 -7 14 -8 21 -1 6 6 2 10 -12 11 -16 2 -18 -1 -9 -10z"/>
<path d="M1961 1261 c-10 -6 -9 -10 3 -14 8 -3 18 -2 21 3 8 13 -9 20 -24 11z"/>
<path d="M2000 1241 c0 -13 28 -40 43 -41 4 0 7 5 7 10 0 6 -5 10 -11 10 -7 0
-18 8 -25 18 -10 12 -13 13 -14 3z"/>
<path d="M2065 1200 c-3 -5 4 -11 15 -15 11 -4 17 -11 14 -17 -4 -6 1 -8 16
-3 15 5 20 4 16 -4 -4 -6 8 -17 29 -25 20 -9 34 -20 31 -25 -3 -5 3 -7 14 -4
24 6 27 23 4 23 -9 0 -24 8 -33 18 -23 24 -100 62 -106 52z"/>
<path d="M2230 1100 c0 -10 19 -24 35 -26 19 -3 84 -51 78 -58 -4 -3 5 -7 18
-8 13 0 30 -2 38 -2 8 -1 16 -7 19 -14 2 -6 10 -12 18 -12 9 0 12 -5 8 -12 -4
-7 -3 -8 4 -4 15 9 4 36 -15 36 -8 0 -12 4 -9 9 3 5 -3 11 -14 14 -11 3 -20 1
-20 -5 0 -5 -5 -6 -10 -3 -6 4 -8 10 -5 15 3 5 -5 10 -17 12 -13 2 -22 9 -20
16 2 9 -4 11 -18 7 -13 -4 -22 -1 -26 9 -3 9 -13 16 -21 16 -8 0 -12 4 -9 8 2
4 -4 9 -15 9 -10 1 -19 -2 -19 -7z"/>
<path d="M2480 979 c0 -5 4 -9 10 -9 5 0 7 -7 4 -15 -4 -8 -1 -15 6 -15 6 0 9
4 5 9 -3 5 2 11 10 13 10 2 7 7 -10 15 -14 6 -25 7 -25 2z"/>
<path d="M2536 937 c3 -10 9 -15 12 -12 3 3 0 11 -7 18 -10 9 -11 8 -5 -6z"/>
<path d="M2575 900 c-3 -5 -1 -10 4 -10 6 0 11 5 11 10 0 6 -2 10 -4 10 -3 0
-8 -4 -11 -10z"/>
<path d="M2600 886 c0 -2 7 -6 15 -10 8 -3 15 -1 15 4 0 6 -7 10 -15 10 -8 0
-15 -2 -15 -4z"/>
<path d="M2696 842 c-3 -6 -1 -14 5 -17 15 -10 25 3 12 16 -7 7 -13 7 -17 1z"/>
<path d="M2730 819 c0 -5 11 -8 25 -7 14 1 25 5 25 9 0 4 -11 7 -25 7 -14 0
-25 -4 -25 -9z"/>
<path d="M2798 813 c6 -3 10 -8 7 -13 -6 -10 15 -8 32 3 6 4 14 3 18 -3 10
-16 25 -12 24 8 0 10 -3 12 -6 4 -2 -6 -10 -9 -16 -5 -7 4 -25 8 -42 9 -16 1
-24 0 -17 -3z"/>
<path d="M2897 779 c7 -7 15 -10 18 -7 3 3 -2 9 -12 12 -14 6 -15 5 -6 -5z"/>
<path d="M2968 723 c7 -3 16 -2 19 1 4 3 -2 6 -13 5 -11 0 -14 -3 -6 -6z"/>
<path d="M3075 680 c4 -6 11 -8 16 -5 14 9 11 15 -7 15 -8 0 -12 -5 -9 -10z"/>
<path d="M3112 658 c5 -15 28 -23 28 -10 0 5 -7 13 -16 16 -10 4 -14 1 -12 -6z"/>
<path d="M3197 609 c7 -7 15 -10 18 -7 3 3 -2 9 -12 12 -14 6 -15 5 -6 -5z"/>
<path d="M3411 494 c0 -11 3 -14 6 -6 3 7 2 16 -1 19 -3 4 -6 -2 -5 -13z"/>
<path d="M3446 478 c3 -5 10 -6 15 -3 13 9 11 12 -6 12 -8 0 -12 -4 -9 -9z"/>
<path d="M3505 440 c3 -5 8 -10 11 -10 2 0 4 5 4 10 0 6 -5 10 -11 10 -5 0 -7
-4 -4 -10z"/>
<path d="M3590 396 c0 -2 7 -7 16 -10 8 -3 12 -2 9 4 -6 10 -25 14 -25 6z"/>
<path d="M3640 385 c0 -5 5 -17 10 -25 5 -8 10 -10 10 -5 0 6 -5 17 -10 25 -5
8 -10 11 -10 5z"/>
<path d="M3850 200 c0 -5 5 -10 11 -10 5 0 7 5 4 10 -3 6 -8 10 -11 10 -2 0
-4 -4 -4 -10z"/>
</g>
</svg>
