<?xml version="1.0" standalone="no"?>
<!DOCTYPE svg PUBLIC "-//W3C//DTD SVG 20010904//EN"
 "http://www.w3.org/TR/2001/REC-SVG-20010904/DTD/svg10.dtd">
<svg version="1.0" xmlns="http://www.w3.org/2000/svg"
 width="300.000000pt" height="157.000000pt" viewBox="0 0 300.000000 157.000000"
 preserveAspectRatio="xMidYMid meet">
<metadata>
</metadata>
<g transform="translate(0.000000,157.000000) scale(0.100000,-0.100000)"
fill="#8A43D2" stroke="none">
<path d="M1704 1419 c-1 -3 -18 -4 -36 -3 l-33 3 30 -8 c31 -8 125 -3 137 8 4
3 -16 6 -43 6 -28 0 -53 -3 -55 -6z"/>
<path d="M1888 1423 c17 -2 47 -2 65 0 17 2 3 4 -33 4 -36 0 -50 -2 -32 -4z"/>
<path d="M1380 1385 c0 -10 11 -15 35 -15 19 0 35 4 35 9 0 5 -8 7 -19 4 -10
-3 -22 0 -25 6 -10 16 -26 13 -26 -4z"/>
<path d="M2000 1390 c-8 -5 -18 -6 -22 -4 -4 3 -8 0 -8 -5 0 -6 10 -11 23 -12
21 0 21 -1 2 -9 -20 -9 -20 -9 0 -10 11 -1 34 -1 52 0 30 1 32 -1 36 -37 l4
-38 1 37 2 36 73 6 c39 4 97 8 127 10 30 2 1 3 -65 3 -66 -1 -126 3 -134 7
-10 6 -12 5 -7 -2 5 -8 -4 -12 -28 -12 -27 0 -35 4 -38 20 -2 14 -7 17 -18 10z"/>
<path d="M2445 1380 l-90 -6 80 -1 c44 -1 105 2 135 7 53 7 54 7 10 7 -25 -1
-85 -4 -135 -7z"/>
<path d="M1415 1289 c-30 -28 -42 -46 -38 -57 5 -13 10 -9 20 15 7 18 30 44
50 58 21 14 32 25 25 25 -7 0 -32 -18 -57 -41z"/>
<path d="M1817 1308 c-60 -3 -111 -9 -115 -12 -3 -4 2 -21 11 -39 12 -25 16
-28 17 -12 1 20 1 20 11 0 7 -16 8 -14 4 10 l-5 30 67 2 c38 1 77 3 88 6 11 2
23 -1 27 -7 5 -8 8 -7 8 2 0 6 5 12 10 12 6 0 10 -9 10 -19 0 -11 5 -23 11
-27 7 -4 9 0 5 14 -7 22 4 35 19 24 6 -4 10 -13 10 -21 0 -8 6 -16 13 -18 8
-3 12 7 12 31 l0 37 -47 -3 c-27 -2 -97 -6 -156 -10z"/>
<path d="M2539 1276 c-2 -2 -65 -7 -139 -11 -249 -14 -365 -22 -339 -23 25 -2
26 -5 33 -79 3 -42 6 -123 6 -180 0 -56 3 -103 8 -103 4 0 7 77 7 171 l0 172
29 3 c16 2 37 -1 48 -7 14 -8 18 -6 18 7 0 11 5 14 16 10 9 -3 17 -6 19 -6 2
0 2 -8 0 -17 -1 -10 0 -13 2 -6 2 6 18 17 34 24 25 10 32 10 39 0 5 -9 9 -8
14 5 6 16 8 16 16 4 6 -9 10 -10 10 -3 0 11 80 14 80 2 0 -3 7 -6 15 -6 8 0
15 4 15 9 0 4 6 8 14 8 8 0 17 -17 22 -42 l8 -43 3 36 c3 28 10 39 31 48 22
11 28 10 39 -5 12 -17 13 -17 13 0 0 15 2 16 15 3 11 -11 15 -46 17 -141 2
-88 6 -125 14 -122 12 5 33 -55 35 -100 1 -24 3 -25 6 -6 5 23 18 29 27 13 4
-5 0 -12 -6 -14 -9 -4 -10 -6 -1 -6 6 -1 15 4 18 9 3 6 13 10 22 10 12 0 13
-3 4 -14 -9 -11 -7 -15 11 -21 49 -15 58 -13 57 14 -1 17 -3 20 -6 9 -2 -10
-13 -18 -24 -18 -17 0 -24 16 -20 43 0 4 -11 7 -25 7 -17 0 -28 6 -31 20 -3
10 -13 22 -23 25 -15 5 -19 22 -24 113 -4 59 -9 131 -13 160 l-5 52 -52 0
c-29 0 -55 -2 -57 -4z"/>
<path d="M317 1169 c-32 -39 -57 -72 -55 -74 9 -7 108 -13 108 -6 0 12 -29 23
-41 15 -5 -3 -9 5 -9 16 0 16 4 20 16 16 8 -3 12 -2 9 4 -3 6 2 10 12 10 13 0
14 3 5 8 -10 7 -7 15 10 38 12 16 27 32 33 36 5 4 1 8 -10 7 -12 0 -42 -26
-78 -70z"/>
<path d="M658 1233 c-21 -5 -24 -23 -4 -23 7 0 16 -11 18 -25 3 -14 1 -25 -3
-25 -5 0 -9 -4 -9 -8 0 -4 9 -8 19 -8 16 0 18 6 13 35 l-5 34 35 -26 c35 -27
51 -27 41 -1 -5 15 -65 55 -79 53 -5 -1 -17 -3 -26 -6z"/>
<path d="M1700 1201 c1 -22 2 -24 11 -8 18 31 29 18 29 -38 l0 -55 -79 0 c-46
0 -83 5 -86 11 -5 7 -52 8 -154 3 -80 -4 -153 -8 -161 -9 -12 -1 -17 -31 -23
-160 -5 -86 -6 -163 -3 -170 4 -11 37 -12 164 -8 139 5 162 4 188 -12 24 -14
26 -14 9 -1 -19 16 -19 17 15 15 19 -1 47 2 62 6 25 6 27 4 31 -27 l4 -33 1
33 c3 46 32 44 32 -2 0 -30 -4 -34 -31 -40 -18 -3 -38 -1 -45 5 -10 8 -14 9
-14 0 0 -7 -20 -11 -52 -10 -52 1 -52 1 -18 11 19 5 40 9 47 10 7 1 10 5 7 9
-3 5 -15 4 -27 0 -35 -13 -93 -31 -101 -31 -4 0 -4 5 -1 10 4 6 3 10 -2 9 -31
-5 -55 4 -63 24 -5 12 -9 16 -9 9 -1 -9 -8 -11 -23 -6 -20 6 -21 5 -9 -9 7 -9
17 -14 22 -11 5 3 9 0 9 -6 0 -6 3 -9 8 -7 4 3 16 1 27 -4 14 -5 6 -8 -29 -8
-66 -1 -54 -11 15 -12 l54 -2 -3 -161 c-2 -88 -5 -167 -7 -173 -7 -20 -25 -15
-25 7 0 11 6 20 13 20 9 0 9 2 -1 9 -11 6 -13 39 -10 145 1 75 0 136 -4 136
-5 0 -8 -14 -8 -31 0 -27 -3 -30 -22 -26 -13 3 -41 8 -63 11 -31 4 -34 4 -15
-3 24 -9 24 -9 -6 -10 -37 -1 -44 -22 -38 -111 3 -40 1 -48 -5 -30 -7 20 -9
21 -9 5 0 -27 16 -76 17 -52 1 11 9 17 24 17 20 1 20 2 5 11 -15 8 -18 24 -18
79 0 84 18 94 23 13 l3 -58 2 58 2 57 50 0 51 0 -3 -101 -3 -101 -82 -1 -82
-2 1 102 c0 57 4 100 9 97 5 -3 9 -1 9 4 0 5 -37 12 -82 15 -108 8 -128 15
-128 39 0 18 5 20 33 15 64 -12 93 -18 145 -32 43 -11 52 -11 52 0 0 10 14 13
50 11 49 -2 81 7 68 19 -5 5 -52 7 -110 5 -10 -1 -18 -8 -18 -16 0 -8 -4 -14
-10 -14 -5 0 -10 7 -10 16 0 14 -3 14 -15 4 -10 -8 -15 -9 -15 -2 0 6 -6 9
-14 6 -7 -3 -43 2 -80 10 -37 9 -79 16 -94 16 -15 0 -34 5 -42 10 -10 7 23 10
103 10 88 0 117 -3 117 -13 0 -8 18 -13 52 -15 28 -1 48 1 44 5 -11 11 -97 32
-133 33 -18 0 -33 5 -33 10 0 6 -11 10 -24 10 -14 0 -28 5 -32 11 -5 8 -40 10
-118 5 -61 -3 -141 -6 -178 -6 -71 0 -77 -4 -54 -36 14 -18 14 -18 13 0 -2 15
7 19 53 22 30 2 89 6 130 9 52 4 70 2 60 -5 -13 -8 -13 -10 3 -10 9 0 17 5 17
10 0 6 12 10 26 10 14 0 23 -4 19 -9 -3 -6 14 -12 37 -14 24 -2 -10 -4 -74 -5
-75 -1 -118 -6 -118 -13 0 -5 4 -7 10 -4 5 3 18 1 27 -4 16 -9 15 -10 -5 -11
-13 0 -21 -4 -17 -10 3 -5 32 -7 65 -3 60 5 60 5 60 -21 0 -25 -2 -27 -35 -20
-31 6 -35 4 -35 -15 0 -15 -4 -20 -12 -15 -8 5 -9 2 -5 -10 4 -10 8 -57 9
-104 l2 -87 4 75 3 75 29 -69 c16 -38 29 -80 28 -93 -2 -22 -5 -23 -83 -22
-44 1 -68 4 -52 6 15 2 27 8 27 13 0 10 -35 3 -69 -13 -24 -12 -24 -12 10 -18
l34 -6 -35 -2 c-28 -2 -31 -4 -15 -10 11 -5 29 -5 40 -1 11 4 36 6 55 4 19 -2
73 -4 120 -5 l85 -2 -65 -9 c-36 -5 -74 -14 -85 -19 -15 -7 -11 -8 15 -3 52 9
291 16 320 8 l25 -6 -23 -9 c-13 -5 -36 -6 -50 -3 -18 4 -23 3 -14 -4 10 -6 1
-13 -33 -22 -25 -7 -48 -10 -52 -6 -3 3 2 6 12 6 10 0 16 2 13 5 -6 6 -69 -9
-276 -66 -84 -23 -150 -44 -148 -46 3 -3 66 12 140 32 75 20 140 35 146 33 6
-2 -28 -14 -75 -27 -47 -13 -83 -26 -80 -29 10 -10 95 -9 88 1 -3 5 4 6 17 2
16 -5 20 -4 15 5 -5 9 -1 10 15 5 15 -5 20 -3 16 3 -3 6 -2 13 4 17 5 3 10 1
10 -4 0 -6 5 -11 11 -11 5 0 7 4 4 10 -3 5 2 9 12 8 35 -3 54 2 48 12 -4 6 13
10 42 11 31 0 41 3 29 8 -13 5 11 14 80 32 55 13 101 27 102 32 2 4 12 7 22 7
10 0 22 4 25 10 4 6 58 10 128 11 84 0 116 3 102 10 -16 7 -12 8 18 6 34 -3
37 -1 36 23 0 14 -3 19 -6 13 -6 -16 -33 -17 -33 -2 0 5 -8 9 -17 8 -10 -1
-46 -1 -80 0 l-63 1 0 99 0 100 48 4 47 3 -55 2 -55 2 3 -105 3 -105 -30 0
-31 0 0 149 0 149 69 4 c85 4 99 1 104 -20 4 -14 6 -13 12 6 13 41 35 26 35
-24 0 -25 -4 -43 -8 -40 -5 3 -9 -1 -9 -9 0 -8 4 -15 9 -15 4 0 8 -9 8 -20 0
-11 -4 -20 -10 -20 -5 0 -9 -19 -9 -42 l2 -43 7 35 7 35 2 -42 c0 -24 -3 -43
-8 -43 -6 0 -9 -9 -8 -19 0 -11 6 -17 14 -14 10 4 13 47 13 184 l0 178 56 0
c30 -1 58 2 61 5 4 3 -32 7 -78 7 -46 1 -74 4 -61 6 22 4 22 7 22 149 l0 144
59 0 60 0 -1 -125 c0 -103 -3 -125 -15 -125 -8 0 -11 -4 -8 -10 3 -5 -3 -10
-15 -10 -12 0 -18 5 -15 10 3 6 -1 10 -10 10 -9 0 -14 -4 -11 -9 4 -5 0 -12
-6 -14 -7 -3 11 -6 40 -6 l52 -1 0 149 0 149 -65 -4 -65 -3 0 45 c0 25 4 43 8
40 4 -2 14 -1 22 5 13 7 12 9 -2 9 -9 0 -18 5 -20 11 -2 5 -16 12 -31 13 -23
3 -27 0 -27 -23z m-129 -113 c1 -7 0 -75 -1 -150 -2 -110 1 -138 12 -139 7 0
38 0 68 1 73 2 59 -9 -20 -15 -52 -5 -65 -3 -76 12 -13 17 -13 17 -14 1 0 -10
-7 -18 -15 -18 -12 0 -15 13 -15 55 0 52 1 55 25 55 40 0 29 17 -12 18 -25 1
-45 10 -65 29 -15 14 -30 24 -34 21 -3 -3 10 -18 29 -33 32 -24 36 -31 39 -86
l3 -59 -123 0 -122 0 6 143 c3 78 7 147 9 154 7 20 304 31 306 11z m131 -60
l2 -63 3 63 c3 46 8 62 19 62 12 0 14 -23 13 -140 0 -114 -3 -140 -15 -140 -8
0 -14 10 -14 26 0 14 4 23 10 19 6 -4 5 5 -2 20 -10 22 -9 28 3 36 12 9 12 10
-1 6 -10 -2 -16 -20 -18 -55 l-3 -52 -55 0 -55 0 2 134 1 135 42 4 c22 2 47 4
54 5 8 1 13 -17 14 -60z m-618 -490 c-4 -46 -8 -84 -9 -85 -1 -2 -13 26 -27
62 -31 78 -28 105 13 105 l29 0 -6 -82z m72 72 c23 0 24 -3 23 -62 l-1 -63 -9
54 c-14 82 -22 76 -17 -11 3 -51 1 -79 -6 -82 -6 -2 -3 -5 7 -5 9 -1 18 -7 18
-13 3 -25 18 78 18 125 1 43 3 47 25 47 23 0 23 0 18 -90 -3 -64 -1 -90 7 -90
7 0 11 30 11 91 0 68 3 90 13 87 8 -3 13 -35 15 -101 l3 -97 -33 -2 c-18 -1
-55 -2 -83 -2 -37 -1 -50 -5 -50 -16 0 -9 6 -13 15 -10 8 2 86 4 173 5 l157 1
0 -23 c0 -23 -2 -23 -117 -22 -88 1 -109 3 -83 10 19 4 56 6 83 2 28 -3 47 -2
47 4 0 6 -12 9 -27 7 -15 -1 -31 2 -35 9 -5 9 -15 8 -41 -1 -41 -15 -60 -15
-52 -2 3 6 -1 10 -10 10 -9 0 -14 -4 -10 -9 3 -6 -37 -9 -97 -9 -82 1 -93 3
-53 8 28 4 45 8 40 8 -6 1 -10 14 -9 30 1 15 2 71 3 126 1 85 3 97 17 92 9 -3
27 -6 40 -6z m584 -242 c0 -5 -16 -8 -36 -8 -21 0 -33 -4 -29 -10 4 -6 -12
-10 -42 -9 -36 0 -43 3 -28 9 19 8 19 9 -2 9 -13 1 -23 -3 -23 -9 0 -5 -7 -10
-15 -10 -8 0 -15 5 -15 11 0 6 -7 9 -15 6 -14 -6 -29 5 -20 15 8 7 225 4 225
-4z"/>
<path d="M1270 1077 c0 -2 29 -27 64 -55 63 -52 63 -52 70 -114 4 -35 10 -73
13 -85 5 -21 2 -22 -74 -26 l-78 -3 87 -2 86 -2 -8 33 c-5 17 -11 57 -12 86
l-3 55 60 12 60 13 -65 -5 -65 -5 -62 51 c-56 45 -73 56 -73 47z"/>
<path d="M1273 880 c0 -41 2 -58 4 -37 2 20 2 54 0 75 -2 20 -4 3 -4 -38z"/>
<path d="M1600 1057 c0 -5 9 -22 20 -37 l20 -29 -22 -4 c-20 -4 -20 -4 4 -6
16 0 35 -12 47 -27 21 -27 29 -22 11 6 -6 9 -5 17 3 22 8 5 7 8 -5 8 -9 0 -30
17 -47 38 -17 20 -30 33 -31 29z"/>
<path d="M1610 900 c0 -5 18 -10 40 -10 22 0 40 5 40 10 0 6 -18 10 -40 10
-22 0 -40 -4 -40 -10z"/>
<path d="M511 1211 c-8 -5 -20 -7 -27 -4 -19 7 -26 -13 -9 -27 10 -9 15 -9 15
-1 0 20 20 11 32 -14 6 -14 22 -28 35 -31 23 -6 28 -19 17 -48 -8 -20 -33 -20
-60 -1 -12 8 -24 12 -26 9 -3 -2 -22 12 -43 33 -25 25 -40 33 -43 25 -2 -7 8
-22 22 -33 14 -11 26 -28 26 -38 0 -14 21 -21 118 -39 64 -12 144 -22 177 -22
l60 1 -29 16 c-16 8 -34 16 -40 17 -6 1 -17 5 -23 9 -7 5 -13 4 -13 -1 0 -12
-90 -6 -102 6 -6 6 -7 19 -3 31 4 15 15 21 38 22 29 1 28 2 -9 8 -23 4 -54 15
-68 25 -32 21 -31 51 2 50 12 0 22 3 22 8 0 11 -51 10 -69 -1z"/>
<path d="M1540 1207 c0 -13 -13 -17 -62 -20 l-63 -3 62 -2 c49 -2 62 -5 66
-19 4 -17 5 -17 6 0 1 14 12 17 64 19 l62 2 -55 3 c-36 3 -59 9 -67 20 -12 16
-13 16 -13 0z"/>
<path d="M1963 1213 c-9 -3 -12 -29 -11 -86 l2 -82 3 78 c4 76 4 77 31 78 15
1 38 5 52 9 20 7 17 8 -20 8 -25 0 -51 -2 -57 -5z"/>
<path d="M1243 1198 c5 -15 1 -18 -23 -18 -17 0 -30 5 -30 10 0 6 -22 10 -50
10 -29 0 -50 -5 -50 -11 0 -5 12 -9 28 -8 15 2 48 -1 74 -5 40 -7 47 -12 51
-35 l4 -26 2 28 c1 26 2 27 69 29 l67 2 -60 3 c-41 3 -64 9 -74 21 -13 16 -13
16 -8 0z"/>
<path d="M1800 1198 c0 -11 68 -10 74 1 3 5 -12 8 -34 7 -22 0 -40 -4 -40 -8z"/>
<path d="M940 1189 c0 -10 99 -8 106 3 3 4 -20 7 -50 7 -31 -1 -56 -5 -56 -10z"/>
<path d="M2064 1050 c0 -85 2 -120 3 -77 2 42 2 112 0 155 -1 42 -3 7 -3 -78z"/>
<path d="M1915 1160 c-10 -16 -9 -269 1 -358 5 -41 9 -50 19 -42 9 8 30 7 72
-2 32 -7 76 -10 98 -7 37 6 36 6 -17 8 -46 1 -58 4 -58 17 0 13 -7 15 -38 9
l-38 -6 -12 51 c-7 28 -12 89 -12 136 0 48 -5 92 -12 104 -9 15 -9 24 1 43 15
29 12 72 -4 47z"/>
<path d="M776 1136 c4 -16 1 -25 -10 -29 -12 -5 -5 -17 33 -52 28 -26 51 -56
53 -68 2 -14 11 -23 26 -25 16 -3 22 -8 18 -18 -3 -8 0 -17 7 -20 20 -7 197
-10 197 -3 0 6 -81 27 -125 32 -11 2 -29 8 -40 14 -17 10 -17 13 -5 28 13 15
10 21 -29 56 -23 21 -56 47 -72 56 -16 10 -27 23 -25 29 3 7 -2 15 -10 18 -24
9 -25 8 -18 -18z m47 -46 c27 -32 20 -43 -13 -20 -16 12 -30 26 -30 31 0 16
25 10 43 -11z m78 -82 c7 -13 6 -18 -5 -18 -12 0 -46 50 -46 68 0 9 41 -32 51
-50z"/>
<path d="M2511 1129 c-1 -41 31 -83 42 -54 4 9 1 15 -8 15 -8 0 -17 12 -21 28
-10 46 -12 48 -13 11z"/>
<path d="M994 1143 c9 -9 144 -10 159 -1 6 4 -28 7 -77 7 -49 0 -86 -3 -82 -6z"/>
<path d="M95 1102 c-12 -12 -4 -32 13 -32 25 -1 57 -23 57 -40 0 -11 15 -16
62 -18 l63 -3 -56 -65 c-61 -72 -66 -98 -8 -40 35 35 51 46 39 26 -11 -18 12
-10 31 11 30 33 64 46 144 54 58 7 69 10 50 16 -14 5 6 6 45 2 39 -3 68 -3 65
0 -3 2 -68 15 -145 27 -77 12 -169 28 -204 37 -102 23 -150 31 -156 25z m150
-48 c17 -2 46 -6 65 -8 19 -3 51 -7 71 -9 19 -2 44 -9 55 -16 16 -10 9 -11
-41 -6 -164 16 -208 24 -224 40 -15 16 -14 17 14 10 17 -5 44 -10 60 -11z"/>
<path d="M2000 1070 c-11 -7 -12 -12 -4 -17 7 -5 14 -19 17 -33 3 -16 5 -10 6
18 0 23 0 42 -1 42 -2 0 -10 -5 -18 -10z"/>
<path d="M1110 1060 c0 -5 21 -10 48 -10 34 0 43 3 32 10 -20 13 -80 13 -80 0z"/>
<path d="M980 1050 c-41 -6 -42 -7 -10 -8 19 0 53 3 75 7 33 7 35 9 10 8 -16
0 -50 -3 -75 -7z"/>
<path d="M1167 993 c-2 -21 0 -42 4 -47 5 -6 9 10 9 37 0 57 -6 61 -13 10z"/>
<path d="M2733 991 c-32 -6 -33 -7 -19 -33 8 -15 12 -29 10 -32 -2 -4 2 -2 8
4 7 5 25 10 41 10 26 0 28 -2 16 -16 -11 -14 -10 -16 16 -14 48 3 54 1 69 -27
8 -16 15 -24 16 -20 0 5 -5 18 -11 29 -10 19 -9 20 7 13 11 -4 30 -7 43 -6 14
0 28 -5 33 -11 6 -10 8 -10 8 -1 0 7 7 10 15 7 8 -4 15 -1 15 6 0 6 -4 9 -9 5
-5 -3 -12 -1 -15 4 -4 5 -2 12 4 16 13 8 13 25 0 25 -5 0 -10 -7 -10 -16 0
-11 -6 -14 -22 -8 -13 4 -29 7 -35 7 -7 0 -13 5 -13 10 0 5 -9 7 -20 4 -10 -3
-19 -2 -18 2 2 20 -4 31 -17 31 -8 0 -15 -6 -16 -12 0 -7 -5 -3 -11 10 -12 23
-31 31 -22 9 3 -8 -2 -20 -10 -27 -13 -10 -17 -9 -22 3 -3 9 -3 21 1 27 3 5 5
9 3 9 -2 -1 -18 -4 -35 -8z"/>
<path d="M91 894 c-45 -53 -74 -91 -64 -86 22 12 103 86 103 95 0 3 14 19 30
35 29 29 39 52 22 52 -4 0 -45 -43 -91 -96z"/>
<path d="M615 951 c-11 -5 -67 -16 -125 -26 -58 -9 -109 -21 -114 -26 -11 -10
67 -5 164 10 36 6 86 11 113 11 46 0 60 11 35 27 -19 11 -50 13 -73 4z"/>
<path d="M760 933 c0 -18 5 -23 28 -23 21 0 24 2 12 10 -13 8 -12 11 5 24 19
15 19 16 -12 14 -27 -2 -33 -6 -33 -25z"/>
<path d="M2479 948 c-1 -7 0 -24 1 -37 1 -14 -2 -21 -9 -17 -6 4 -11 2 -11 -3
0 -6 8 -11 18 -11 14 0 17 7 14 40 -4 39 -11 53 -13 28z"/>
<path d="M847 924 c-10 -13 -24 -24 -32 -24 -22 0 -18 -33 6 -64 23 -29 50
-34 69 -11 10 12 10 21 2 38 -6 12 -13 34 -15 49 -4 38 -9 40 -30 12z"/>
<path d="M1121 906 l-1 -39 -80 5 c-45 3 -75 1 -68 -3 7 -5 43 -9 80 -9 l67 0
3 -47 3 -48 5 55 c3 30 2 71 -1 90 l-6 35 -2 -39z"/>
<path d="M1150 909 c0 -11 5 -17 10 -14 6 3 10 1 10 -4 0 -6 -6 -11 -12 -11
-10 0 -10 -2 0 -9 9 -5 13 -25 11 -62 -2 -31 1 -53 6 -51 6 1 10 7 9 12 -1 6
-2 44 -2 85 -2 59 -5 75 -17 75 -8 0 -15 -9 -15 -21z"/>
<path d="M2545 900 c-4 -6 -11 -8 -16 -5 -5 4 -9 1 -9 -4 0 -6 16 -11 35 -11
40 0 43 5 16 20 -14 7 -22 7 -26 0z"/>
<path d="M759 886 c-3 -3 -41 -11 -85 -17 -113 -15 -176 -41 -245 -98 -33 -28
-66 -54 -72 -58 -18 -12 -69 -83 -60 -83 5 0 48 39 97 86 82 79 111 99 174
118 28 9 30 -14 2 -39 -11 -10 -20 -28 -19 -39 0 -15 2 -17 6 -6 3 8 19 34 35
58 41 59 89 55 60 -6 -5 -9 -14 -27 -21 -39 -6 -13 -9 -23 -5 -23 18 0 64 76
64 106 0 11 5 14 16 10 9 -3 18 -6 20 -6 2 0 4 -6 4 -14 0 -12 29 -31 35 -24
18 23 23 47 12 62 -7 9 -15 15 -18 12z"/>
<path d="M2616 845 c-20 -14 -51 -32 -68 -41 -30 -16 -31 -17 -13 -30 22 -16
39 -18 30 -4 -3 6 4 14 17 19 13 5 31 18 42 30 22 25 36 19 29 -12 -4 -13 -2
-18 3 -14 10 10 13 77 3 77 -3 0 -23 -11 -43 -25z"/>
<path d="M2962 862 c-7 -5 -10 -16 -7 -25 6 -14 8 -14 25 1 27 23 12 43 -18
24z"/>
<path d="M1985 843 c2 -10 4 -22 5 -28 1 -5 6 1 10 15 8 24 8 24 9 3 1 -21 6
-23 65 -23 42 0 66 4 69 13 4 9 6 9 6 -1 1 -7 6 -10 11 -7 22 14 -4 25 -56 25
-34 0 -53 4 -49 10 4 6 -10 10 -34 10 -32 0 -39 -3 -36 -17z"/>
<path d="M2880 820 c0 -22 25 -44 41 -34 8 4 4 11 -12 20 -21 12 -21 13 -5 14
21 0 14 13 -9 16 -9 1 -15 -6 -15 -16z"/>
<path d="M2738 803 c-36 -9 -34 -77 3 -88 28 -9 38 4 15 20 -10 8 -15 18 -11
24 3 6 2 11 -4 11 -5 0 -12 -8 -15 -17 -3 -11 -4 -7 -3 7 2 20 7 24 25 22 12
-2 22 1 22 7 0 13 -11 18 -32 14z"/>
<path d="M2210 780 c-27 -6 -17 -8 48 -9 66 -1 82 -4 82 -16 0 -10 10 -15 28
-15 36 0 72 10 72 20 0 16 -179 32 -230 20z"/>
<path d="M2486 758 c-4 -13 -9 -18 -12 -11 -4 9 -10 10 -24 1 -25 -16 -7 -42
19 -28 26 14 38 -1 45 -55 8 -73 9 -75 17 -69 9 5 39 -23 39 -38 0 -6 -8 -4
-18 5 -26 24 -32 21 -32 -13 0 -20 7 -33 23 -41 19 -10 20 -10 11 2 -6 8 -14
22 -17 32 -6 16 -4 16 23 2 38 -20 60 -52 60 -91 0 -28 3 -31 25 -26 14 2 22
8 19 13 -3 5 -10 6 -16 3 -8 -5 -9 9 -5 47 4 42 3 49 -5 32 -10 -21 -11 -21
-29 14 -22 43 -11 66 27 57 13 -3 24 -2 25 2 0 5 2 19 5 31 2 12 -1 25 -6 28
-6 4 -10 -7 -10 -25 0 -25 -3 -31 -16 -26 -9 3 -18 6 -20 6 -2 0 -5 10 -5 23
-1 16 -2 18 -6 5 -2 -10 -8 -18 -13 -18 -4 0 -7 -6 -6 -12 0 -7 -3 -14 -9 -15
-5 -2 -10 4 -10 13 0 17 -25 35 -37 28 -11 -7 -10 4 2 26 15 28 -1 114 -21
118 -10 2 -19 -6 -23 -20z"/>
<path d="M2550 731 c0 -5 6 -14 14 -18 8 -5 19 -19 25 -33 9 -22 10 -23 10 -4
1 11 -2 24 -6 28 -5 4 -8 13 -8 19 0 7 -8 13 -17 15 -10 2 -18 -1 -18 -7z"/>
<path d="M2025 710 c-137 -3 -225 -8 -195 -11 30 -3 137 -4 237 -3 l182 2 6
-41 c3 -23 4 -78 3 -122 -3 -151 3 -203 25 -209 18 -4 19 -1 13 62 -3 37 -6
125 -7 195 -1 70 -5 129 -8 130 -3 1 -118 0 -256 -3z"/>
<path d="M837 689 c-53 -6 -91 -19 -56 -19 12 0 14 -17 11 -97 -2 -54 -8 -105
-12 -113 -4 -8 -2 -33 4 -55 12 -39 12 -38 19 54 4 52 7 118 7 148 0 46 3 53
20 53 16 0 20 -8 23 -57 l3 -58 2 62 c2 60 1 62 -25 66 -18 3 -11 5 17 5 64 0
70 1 70 10 0 10 -5 10 -83 1z"/>
<path d="M670 646 c0 -39 -3 -45 -22 -48 -21 -3 -21 -4 5 -9 27 -6 27 -6 27
47 0 30 -2 54 -5 54 -3 0 -5 -20 -5 -44z"/>
<path d="M1540 670 c-12 -8 -11 -10 6 -10 11 0 24 -3 28 -7 7 -7 76 -33 89
-33 5 0 2 7 -7 15 -8 8 -30 15 -48 15 -22 0 -28 3 -20 9 11 7 10 10 -3 15 -22
8 -27 8 -45 -4z"/>
<path d="M2141 658 c-1 -27 -4 -28 -50 -28 -46 0 -48 -1 -43 -25 4 -25 25 -34
37 -15 3 6 1 10 -4 10 -6 0 -11 5 -11 10 0 6 9 10 20 10 15 0 20 -7 20 -25 0
-14 7 -28 15 -31 11 -5 15 -23 14 -78 0 -49 -3 -65 -9 -51 -9 19 -9 19 -16 -2
-3 -13 -10 -23 -15 -23 -20 0 -34 57 -18 76 7 8 7 14 -1 19 -14 9 -13 21 6 39
8 9 14 16 12 17 -29 7 -48 4 -43 -8 3 -8 5 -49 5 -90 l0 -76 40 6 c22 3 40 1
40 -4 0 -5 7 -9 16 -9 13 0 15 12 9 93 -4 50 -13 98 -19 106 -8 11 -8 15 2 18
6 3 10 9 6 14 -3 5 0 9 5 9 6 0 11 -10 11 -21 0 -21 1 -21 20 4 22 28 29 60 8
39 -22 -22 -46 -14 -51 16 l-4 27 -2 -27z"/>
<path d="M2767 664 c4 -12 3 -15 -5 -10 -7 4 -12 3 -12 -2 0 -9 -50 -37 -62
-34 -5 1 -8 -2 -8 -8 0 -5 11 -10 25 -10 17 0 25 6 25 18 1 16 1 16 14 -1 13
-16 14 -16 19 5 l6 23 21 -22 c18 -21 57 -22 45 -2 -3 4 -12 6 -20 3 -9 -4
-18 3 -24 19 -5 14 -14 28 -20 32 -7 4 -8 0 -4 -11z"/>
<path d="M900 650 l35 -7 -30 -3 -30 -2 30 -9 c45 -13 96 -8 93 10 -2 11 -20
15 -68 17 -50 1 -57 0 -30 -6z"/>
<path d="M2953 652 c-21 -13 -4 -49 23 -49 13 0 24 5 24 11 0 14 -20 44 -20
31 0 -5 -4 -5 -8 2 -4 7 -13 9 -19 5z"/>
<path d="M1843 638 c1 -8 -12 -14 -35 -16 -28 -2 -38 -8 -37 -20 0 -11 3 -12
6 -4 2 7 22 12 44 12 29 0 39 4 39 16 0 8 4 13 9 9 5 -3 12 -1 16 5 4 6 -5 10
-19 10 -16 0 -25 -5 -23 -12z"/>
<path d="M2347 598 c1 -29 5 -106 9 -170 l6 -118 84 0 c67 0 84 3 84 15 0 9
-6 12 -15 9 -11 -5 -15 2 -15 27 0 24 -3 30 -9 20 -5 -8 -7 -20 -5 -26 7 -17
-28 -29 -38 -13 -6 10 -8 10 -8 1 0 -7 -7 -13 -15 -13 -8 0 -15 6 -15 13 0 9
-3 8 -9 -2 -5 -7 -11 -9 -14 -4 -10 17 -24 149 -26 251 0 34 -5 62 -9 62 -5 0
-7 -24 -5 -52z"/>
<path d="M897 599 c17 -73 55 -189 63 -189 10 0 25 188 16 197 -3 4 -6 -16 -7
-43 0 -45 -15 -150 -18 -131 -6 37 -45 174 -51 181 -5 5 -6 -2 -3 -15z"/>
<path d="M174 589 c-52 -25 -174 -147 -174 -174 0 -17 2 -17 16 5 40 60 122
134 179 161 33 16 51 29 40 29 -11 0 -39 -9 -61 -21z"/>
<path d="M870 582 c0 -16 -3 -71 -6 -123 -4 -52 -4 -91 0 -88 9 8 21 239 12
239 -3 0 -6 -13 -6 -28z"/>
<path d="M1423 500 c0 -47 2 -66 4 -42 2 23 2 61 0 85 -2 23 -4 4 -4 -43z"/>
<path d="M1643 515 c0 -33 2 -45 4 -27 2 18 2 45 0 60 -2 15 -4 0 -4 -33z"/>
<path d="M2710 533 c0 -5 5 -14 12 -21 6 -6 8 -15 3 -19 -4 -5 -10 -2 -12 5
-6 17 -23 15 -23 -3 0 -9 9 -15 25 -15 29 0 35 29 10 50 -8 7 -15 8 -15 3z"/>
<path d="M2764 508 c1 -13 9 -23 17 -23 8 0 17 -4 20 -9 4 -4 7 4 7 18 0 23
-2 24 -13 10 -11 -16 -12 -16 -18 0 -4 10 -3 15 3 11 6 -3 10 -1 10 4 0 6 -7
11 -15 11 -10 0 -14 -8 -11 -22z"/>
<path d="M662 478 c-1 -16 -9 -28 -19 -31 -17 -4 -17 -5 0 -6 12 -1 17 -10 17
-35 l0 -34 -76 -1 c-42 -1 -83 -6 -92 -12 -12 -7 10 -8 77 -4 l94 7 -6 -24
c-6 -23 -4 -24 31 -19 32 4 34 5 13 10 -35 9 -37 29 -4 37 45 10 51 15 11 10
l-37 -5 -4 67 c-2 37 -4 55 -5 40z"/>
<path d="M350 469 c0 -5 28 -9 63 -8 71 1 67 5 -10 12 -29 2 -53 0 -53 -4z"/>
<path d="M2530 405 l0 -45 238 0 c157 0 232 4 222 10 -8 5 -39 10 -67 10 -39
0 -58 5 -72 19 -18 18 -19 18 -24 1 -3 -12 -13 -18 -30 -17 -14 1 -23 5 -21 8
2 4 -3 9 -11 13 -9 3 -15 0 -15 -8 0 -10 -12 -13 -42 -11 -24 2 -45 4 -48 5
-3 1 -9 2 -14 1 -4 -1 -15 4 -24 11 -12 10 -14 10 -8 1 4 -7 2 -13 -4 -13 -11
0 -24 9 -61 43 -18 17 -19 16 -19 -28z"/>
<path d="M2181 413 c-1 -27 8 -53 20 -53 5 0 9 9 9 20 0 11 -4 20 -9 20 -5 0
-12 8 -14 18 -4 13 -5 12 -6 -5z"/>
<path d="M1926 392 c-4 -4 -13 -7 -19 -7 -7 0 -13 -13 -15 -28 -3 -26 -2 -28
18 -17 11 6 18 15 15 21 -4 5 1 9 9 9 9 0 16 4 16 9 0 14 -16 22 -24 13z"/>
<path d="M2151 358 c-1 -15 -11 -18 -52 -18 -31 0 -48 4 -44 10 4 6 -17 10
-54 10 -75 0 -80 -15 -8 -24 57 -6 226 -6 190 1 -12 2 -24 12 -26 21 -4 15 -5
15 -6 0z"/>
<path d="M755 350 c-3 -5 -2 -15 1 -24 5 -14 26 -16 136 -16 86 0 127 3 123
10 -4 6 -35 10 -71 8 -46 -1 -68 2 -74 11 -4 8 -15 11 -23 8 -8 -3 -31 -2 -51
3 -20 4 -38 4 -41 0z"/>
<path d="M1807 353 c-15 -14 -5 -20 30 -18 48 3 57 25 11 25 -19 0 -38 -3 -41
-7z"/>
<path d="M1783 300 c-13 -5 -23 -12 -23 -15 0 -11 37 -4 56 10 22 17 4 20 -33
5z"/>
<path d="M1915 301 c39 -5 38 -5 -20 -11 -38 -4 15 -8 150 -10 307 -6 323 -6
318 3 -2 4 -13 7 -24 7 -10 0 -19 5 -19 10 0 6 -80 9 -222 8 -123 -1 -205 -4
-183 -7z"/>
<path d="M1015 284 l40 -14 -35 6 c-86 13 -102 13 -50 -1 32 -8 70 -11 90 -8
l35 7 -40 12 c-55 17 -89 16 -40 -2z"/>
<path d="M1586 282 c-4 -7 114 -5 121 2 3 2 -23 5 -56 5 -33 0 -62 -3 -65 -7z"/>
<path d="M940 259 c20 -7 18 -8 -14 -4 -21 2 -79 -4 -130 -15 -53 -10 -125
-17 -173 -16 -45 1 -80 -1 -78 -5 8 -12 151 -8 227 7 58 12 87 13 115 5 21 -6
54 -10 73 -9 33 1 32 1 -10 8 l-45 7 48 1 c53 2 63 16 16 26 -43 8 -59 6 -29
-5z"/>
<path d="M1468 248 c-3 -9 -27 -12 -78 -10 -41 2 -72 0 -69 -3 3 -3 34 -6 68
-7 l62 -2 -71 -32 c-38 -18 -70 -35 -70 -38 0 -3 35 10 78 30 42 19 79 36 82
36 3 0 38 0 79 -1 63 -1 72 -3 61 -16 -10 -13 -8 -13 16 -1 23 11 53 12 139 6
151 -11 1224 -34 1232 -26 3 3 4 8 1 11 -3 3 -146 8 -319 11 -221 5 -320 10
-334 19 -14 8 -122 13 -380 17 -198 3 -346 2 -330 -2 22 -6 11 -8 -45 -8 -41
0 -84 4 -95 9 -15 7 -12 8 15 4 27 -4 30 -3 15 4 -29 14 -53 13 -57 -1z m345
-15 c-23 -2 -64 -2 -90 0 -26 2 -7 3 42 3 50 0 71 -1 48 -3z m410 -10 c-62 -2
-164 -2 -225 0 -62 1 -12 3 112 3 124 0 174 -2 113 -3z"/>
<path d="M771 214 c-90 -20 -144 -35 -139 -39 2 -2 42 5 88 15 47 11 100 20
118 20 17 0 32 5 32 10 0 13 -19 11 -99 -6z"/>
<path d="M2493 223 c37 -2 96 -2 130 0 34 2 4 3 -68 3 -71 0 -99 -1 -62 -3z"/>
<path d="M1569 169 c-21 -41 27 -48 156 -25 59 10 65 13 40 18 -16 3 -32 2
-35 -2 -7 -11 -125 -24 -145 -16 -13 4 -14 10 -5 26 6 11 8 20 6 20 -3 0 -10
-10 -17 -21z"/>
<path d="M936 159 c4 -8 -1 -9 -16 -4 -15 5 -20 4 -16 -4 4 -6 1 -11 -6 -12
-70 -6 -89 -9 -107 -18 -12 -7 -21 -8 -21 -4 0 4 -5 0 -11 -10 -8 -13 -14 -15
-23 -8 -17 15 -116 -16 -116 -36 0 -13 -2 -13 -17 -2 -15 12 -16 12 -10 -3 3
-9 -1 -22 -9 -29 -8 -6 -12 -14 -10 -17 3 -2 37 17 75 43 54 37 73 45 84 37
10 -8 20 -8 39 2 15 8 28 12 31 10 2 -2 24 3 48 11 24 9 55 13 69 10 20 -4 22
-3 10 6 -12 8 -8 9 15 5 23 -5 27 -4 15 5 -12 8 -8 9 15 5 l30 -6 -25 15 c-30
17 -54 19 -44 4z"/>
<path d="M2149 147 c-1 -12 0 -26 1 -32 1 -5 6 -35 10 -65 l7 -55 2 50 2 50
13 -30 c8 -16 21 -39 30 -50 15 -19 15 -17 16 31 0 28 2 67 5 85 4 26 3 30 -4
14 -5 -11 -10 -40 -10 -64 -1 -36 -3 -42 -13 -33 -7 7 -13 33 -13 57 0 36 -4
46 -22 54 -20 9 -23 8 -24 -12z"/>
<path d="M2284 163 c-11 -4 -11 -31 1 -120 10 -68 25 -50 25 30 0 74 -7 97
-26 90z"/>
<path d="M750 145 c-47 -18 -15 -18 35 0 22 8 31 14 20 14 -11 0 -36 -7 -55
-14z"/>
<path d="M1963 146 c17 -17 75 -28 83 -15 3 5 -12 10 -33 10 -38 1 -38 1 -8 9
28 7 27 8 -13 9 -37 1 -41 -1 -29 -13z"/>
<path d="M2371 98 c-1 -37 3 -69 7 -72 4 -2 6 23 4 57 -5 87 -10 94 -11 15z"/>
<path d="M2603 153 c-20 -7 -15 -31 7 -38 15 -5 20 -15 20 -38 0 -18 -4 -38
-9 -46 -14 -21 -51 23 -61 72 -7 40 -8 39 -9 -25 -1 -66 10 -95 24 -60 6 16 7
16 20 -1 8 -11 16 -14 19 -8 4 6 13 8 21 4 12 -4 15 6 15 52 0 54 -12 96 -28
94 -4 0 -13 -3 -19 -6z"/>
<path d="M2734 142 c7 -12 76 -14 76 -2 0 5 -18 10 -41 10 -22 0 -38 -4 -35
-8z"/>
<path d="M1230 89 c82 -10 394 -17 377 -8 -6 3 -109 9 -227 11 -130 3 -189 2
-150 -3z"/>
<path d="M1657 73 c18 -2 50 -2 70 0 21 2 7 4 -32 4 -38 0 -55 -2 -38 -4z"/>
</g>
</svg>
